<svg width="19" height="20" viewBox="0 0 19 20" fill="none" xmlns="http://www.w3.org/2000/svg">
<path d="M11.2461 3.86446C10.5776 2.95285 10.1066 1.71321 10.1003 0C13.7541 0.339296 16.6944 3.12892 17.2633 6.71097C17.0579 6.69659 16.7732 6.6694 16.4345 6.6181C15.7042 6.50744 14.7431 6.28755 13.792 5.85522C12.8421 5.42343 11.9253 4.79059 11.2461 3.86446Z" fill="#FF904C"/>
<path d="M1.43491 6.71095C1.64029 6.69656 1.92493 6.66938 2.26339 6.6181C2.99368 6.50744 3.95479 6.28755 4.9059 5.85522C5.85584 5.42343 6.77264 4.79059 7.4518 3.86446C8.12031 2.95286 8.5913 1.71322 8.59758 2.97346e-05C4.94397 0.339458 2.00383 3.12901 1.43491 6.71095Z" fill="#FF904C"/>
<path fillRule="evenodd" clipRule="evenodd" d="M18.3647 20V11.9861H17.363V8.22208C17.3174 8.21988 17.2661 8.21703 17.2095 8.21336C16.9653 8.1975 16.6209 8.16609 16.2094 8.10374C15.5593 8.00523 14.7292 7.82766 13.8569 7.50525V11.9861H4.8413V7.50514C3.96895 7.82762 3.13873 8.00522 2.48849 8.10374C2.07696 8.16609 1.73257 8.1975 1.48843 8.21336C1.43194 8.21703 1.38074 8.21987 1.33523 8.22207V11.9861H0.333496V20H18.3647ZM2.33697 13.9896H4.34044V17.9965H2.33697V13.9896ZM6.34391 13.9896H8.34738V17.9965H6.34391V13.9896ZM10.3508 13.9896H12.3543V17.9965H10.3508V13.9896ZM14.3578 13.9896H16.3613V17.9965H14.3578V13.9896Z" fill="#FF904C"/>
</svg>
