<svg width="166" height="144" viewBox="0 0 166 144" fill="none" xmlns="http://www.w3.org/2000/svg">
<path fillRule="evenodd" clipRule="evenodd" d="M128.353 117.077C129.281 120.22 128.689 123.889 126.563 126.475C125.189 128.145 121.924 129.638 120.091 127.899C119.271 127.122 118.924 124.46 118.574 123.218C118.252 122.075 117.713 119.96 117.953 119.002C118.301 117.605 121.085 117.928 122.386 117.805C124.383 117.618 126.365 117.333 128.353 117.077ZM154.62 118.674C155.057 119.636 155.754 120.273 156.051 121.341C156.246 122.038 156.363 122.737 156.44 123.453C156.533 124.319 156.596 124.286 155.998 124.692C155.086 125.31 152.752 125.262 151.641 125.442C150.192 125.676 148.75 125.951 147.3 126.185C147.651 124.835 147.467 123.382 147.83 122.006C148.183 120.669 148.798 119.348 149.666 118.25C150.311 117.432 151.25 116.453 152.411 116.448C153.907 116.441 154.143 117.626 154.62 118.674ZM62.6039 89.758C62.826 92.6513 62.4137 95.7324 60.7682 98.2187C60.0713 99.2717 59.0565 99.8381 58.2326 100.745C57.2793 101.794 56.7623 103.091 55.2563 103.54C54.2846 103.83 53.1442 103.629 52.1338 103.76C50.4567 103.977 49.9615 103.742 48.5473 102.874C47.5317 102.25 46.3608 102.367 45.2897 101.683C44.0053 100.863 42.8869 99.6939 41.6703 98.7654C48.4977 95.4209 55.5363 92.5728 62.6039 89.758ZM80.9565 91.4738C83.5693 92.7033 84.951 94.8004 85.6977 97.5074C78.4902 99.1549 71.4756 101.17 64.3961 103.443C66.3729 98.4144 68.593 93.8099 74.0008 91.4711C75.0797 91.0045 76.1883 90.2615 77.4162 90.2793C78.6393 90.2967 79.884 90.9693 80.9565 91.4738ZM146.695 98.9283C150.409 100.883 148.521 107.131 147.223 109.905C145.571 108.69 143.839 107.507 142.226 106.323C140.463 105.03 138.878 103.365 137.27 101.892C138.121 101.448 138.675 100.742 139.466 100.234C140.25 99.732 141.028 99.6961 141.905 99.4998C143.587 99.1238 144.947 98.0082 146.695 98.9283ZM117.709 84.8498C118.005 85.2301 118.359 85.5887 118.639 85.9795C119.317 86.9285 119.904 87.8935 120.691 88.774C122.084 90.3342 124.113 92.3904 126.396 92.5328L126.463 93.1988C125.789 93.1818 125.391 92.6019 124.807 92.5429C124.348 92.4969 123.706 92.8472 123.144 92.7976C121.405 92.6445 119.697 92.557 117.931 92.6039C114.447 92.6963 111.022 93.2517 107.598 93.6945C108.252 91.3625 109.473 88.9738 111.419 87.4139C112.092 86.8744 112.736 86.133 113.496 85.7031C113.953 85.4443 114.437 85.4246 114.907 85.2224C115.452 84.9885 116.151 84.2078 116.713 84.133C117.301 84.0547 117.303 84.3297 117.709 84.8498ZM145.629 85.0623C147.456 86.5295 148.861 88.391 150.363 90.1531C151.724 91.748 153.567 94.0234 154.051 96.0767C151.639 97.2117 147.501 96.1728 145.945 94.0734C144.026 91.4844 144.967 87.8808 145.629 85.0623ZM103.791 76.6965C103.431 79.1295 102.262 81.8404 100.507 83.657C99.7498 84.4404 99.0867 85.4619 98.227 86.1469C97.1041 87.0414 96.2004 86.583 94.8973 86.7219C93.4977 86.8707 92.5906 87.784 91.099 87.5361C90.0365 87.3594 89.0578 86.7711 88.0594 86.5926C86.9686 86.3974 86.0164 86.5131 84.932 85.973C83.5908 85.3055 82.5207 83.9916 81.4777 82.9939C82.0268 82.5592 83.1354 82.5279 83.8377 82.293C84.7654 81.9824 85.692 81.6748 86.625 81.3773C88.5518 80.7631 90.4733 80.1357 92.4039 79.5318C96.0811 78.3816 99.9637 77.289 103.791 76.6965Z" fill="#FF904C"/>
<path fillRule="evenodd" clipRule="evenodd" d="M161.48 16.6274L161.36 17.434C162.534 17.6363 162.568 16.9274 161.48 16.6274ZM156.371 15.2366C155.742 15.0171 154.712 15.3389 155.207 16.0906C155.906 17.1522 156.224 15.7664 156.371 15.2366ZM105.61 44.6324C105.705 44.5379 104.589 42.4063 104.445 42.0486C103.725 42.4596 103.676 42.3602 103.969 43.0473C104.223 43.6399 105.104 44.2416 105.61 44.6324ZM39.8284 45.2172C39.4844 45.1871 38.7997 44.9822 38.5077 45.1018C38.0997 45.269 38.2094 45.6561 38.16 46.2209C39.3532 46.1654 39.5202 46.3235 39.8284 45.2172ZM38.2811 44.0469C38.8645 44.1516 39.4475 44.2563 40.0307 44.361C40.1553 43.693 40.485 42.5883 39.2553 42.9916C39.1397 43.0295 38.4289 43.8295 38.2811 44.0469ZM106.989 45.4203C106.368 46.0367 109.248 47.3414 109.545 46.9235C110.192 46.0117 107.407 45.5569 106.989 45.4203ZM121.231 38.1352C121.58 38.101 121.928 38.0666 122.276 38.0324C122.156 37.5244 121.789 35.652 121.027 35.7526C120.27 35.8522 121.124 37.7391 121.231 38.1352ZM122.502 41.192C122.512 40.7701 122.684 39.8344 122.519 39.4281C122.407 39.152 121.945 38.3131 121.282 38.8582C121.141 38.9742 121.076 40.6637 121.119 40.7184C121.3 40.9483 122.244 41.1037 122.502 41.192ZM118.902 46.6106C118.187 46.0641 116.633 45.2578 115.944 46.4936C114.985 48.2158 118.281 47.0647 118.902 46.6106ZM114.815 46.7541C113.877 46.9301 112.929 46.907 111.978 46.8406C110.914 46.766 110.661 46.441 110.351 47.4606C111.493 47.8744 113.925 48.1615 115.08 47.7678C114.992 47.4299 114.904 47.0918 114.815 46.7541ZM120.736 42.0746C120.407 42.7481 119.695 43.6301 119.503 44.3326C119.362 44.8506 119.307 44.5918 119.425 44.9938C119.467 45.1371 120.045 45.7375 120.146 45.8826C120.848 45.3514 121.694 44.8086 122.054 43.9902C122.629 42.6799 121.889 42.5748 120.736 42.0746ZM104.768 39.317C102.382 40.0596 99.4502 40.7867 96.9239 40.5656C96.8907 40.7819 101.209 42.0403 101.725 41.9494C102.252 41.8567 102.294 41.1215 102.926 40.7291C103.623 40.2965 104.199 40.5539 104.969 40.4865C104.902 40.0967 104.835 39.7068 104.768 39.317ZM112.625 49.319C110.428 49.1783 108.465 48.6535 106.522 47.6539C105.406 47.0799 104.604 46.2473 103.858 45.2867C103.281 44.5426 103.399 44.6037 102.491 44.3514C101.821 44.1652 100.997 44.2406 100.308 44.1543C98.0041 43.8645 95.7075 43.166 93.5157 42.4391C91.0561 41.6235 88.9373 40.4731 86.2356 40.5402C81.5965 40.6557 77.8338 44.1666 72.9946 42.692C71.0745 42.107 69.0858 41.3305 67.5329 40.0764C65.5135 38.4451 64.2871 37.4787 61.4414 38.0567C59.1502 38.5217 57.3924 39.7358 55.4293 40.8547C53.1922 42.1301 50.7508 42.8942 48.2563 43.5678C47.2791 43.8315 46.3741 43.985 45.35 44.0363C44.7409 44.067 41.8541 43.6278 41.4975 43.9379C41.1526 44.2379 40.9957 46.308 41.0325 46.6856C41.0938 47.316 40.8155 47.3811 41.4891 47.6467C41.9569 47.8311 43.4012 47.6445 43.9809 47.7106C48.6452 48.2434 53.4237 48.4029 58.0133 49.2067C62.3268 49.9619 66.6557 50.5731 70.9207 51.4588C76.4688 52.6113 82.1192 53.1371 87.6702 54.2531C90.3534 54.7924 93.0594 55.5522 95.7112 56.1268C98.1258 56.6496 100.552 57.135 102.98 57.6088C102.891 57.2752 102.387 56.0596 103.192 56.1717C103.703 56.2426 104.56 58.0057 104.829 58.4024C106.069 60.2285 107.389 61.6149 109.075 63.0682C110.774 64.533 112.486 65.9826 114.211 67.4203C115.62 68.5947 118.647 70.3465 118.569 72.3975C117.711 72.5608 116.006 71.0403 115.364 70.6283C114.064 69.7943 112.817 68.8858 111.604 67.9373C110.464 69.6063 113.167 71.5408 113.474 73.1194C112.779 73.1223 111.618 71.2088 111.196 70.7018C110.075 71.7465 108.817 72.6678 108.01 73.9801C117.054 73.5942 118.537 84.8115 125.066 88.6141C126.512 89.4563 128.325 89.8045 129.978 89.4344C131.701 89.0492 133.357 88.5053 134.872 87.5321C138.257 85.3586 140.738 81.1799 142.062 77.5914C142.794 75.6096 143.484 73.6901 143.815 71.6047C144.181 69.2955 143.837 66.9485 143.538 64.6475C143.007 60.5475 140.828 56.4084 137.741 53.4758C136.358 52.1615 134.847 51.0112 133.58 49.5764C133.138 49.0756 132.13 47.158 131.575 47.0379C130.553 46.8164 130.025 48.2508 129.318 47.0768C128.625 45.9276 129.947 45.4791 130.751 44.9438C131.619 44.3658 132.46 43.758 133.308 43.1547C134.985 41.9615 136.645 40.7883 138.256 39.518C146.108 33.3242 153.051 26.419 160.083 19.3809C158.767 19.0693 156.894 18.1736 155.555 18.4125C154.216 18.6518 153.027 19.5992 151.615 19.7563C150.239 19.9092 148.904 19.6123 147.629 19.1799C146.125 18.6701 145.107 18.0143 143.846 19.2861C141.82 21.3299 140.704 24.1695 138.577 26.1033C136.427 28.0576 133.418 29.199 130.618 29.7885C128.026 30.3342 124.432 30.0764 122.532 32.1168C122.105 32.5758 121.724 32.9026 121.699 33.5887C121.656 34.8088 121.933 33.9344 122.325 34.6901C122.964 35.9201 123.214 37.4549 123.358 38.8143C123.65 41.5658 123.282 44.5797 121.077 46.4762C118.702 48.5186 115.765 49.3785 112.625 49.319ZM112.499 44.8625C114.107 45.6828 117.358 44.6137 118.643 43.6135C120.392 42.2524 120.53 39.8832 120.25 37.9027C119.437 38.0996 118.623 38.2963 117.81 38.4932C117.464 38.577 117.117 38.6609 116.77 38.7449C116.802 39.0318 116.755 39.2996 116.629 39.5483C115.863 40.5299 115.492 40.0422 114.66 39.1908C112.879 37.3684 111.299 35.3139 110.573 32.8912C109.76 33.8414 108.841 34.4541 107.538 34.3221C106.967 34.2645 104.777 33.5826 105.342 32.5832C105.522 32.2654 107.303 32.6656 107.899 32.6356C109.145 32.5725 109.732 32.5965 110.188 31.4248C110.567 30.4492 110.433 30.0483 109.262 29.8695C107.775 29.6424 107.732 30.5254 106.672 30.9395C103.982 31.9912 105.819 27.8035 105.435 26.624C106.758 26.2326 108.154 25.9608 109.323 25.2149C108.028 25.3635 106.795 25.7963 105.54 26.1113C105.647 24.567 108.711 24.2383 109.857 23.7531C108.619 23.5885 107.442 24.4035 106.2 24.3522C105.039 24.3043 103.41 23.8164 102.29 23.4449C101.138 23.0631 100.234 21.9988 99.1229 22.9252C98.3944 23.5324 97.4166 25.1869 97.1832 26.0674C97.9082 25.9629 99.6161 25.8219 99.8174 26.6447C100.076 27.7016 97.9426 27.0865 97.285 27.2596C96.2868 27.5225 96.5928 27.8125 96.2307 28.7988C95.8741 29.7701 95.2338 30.5473 94.2211 30.95C95.3469 31.5557 95.6569 31.5447 95.4299 32.6652C95.2069 33.767 95.3541 35.0047 95.4631 36.2309C96.133 35.9567 96.8547 35.8682 97.5739 35.7963C97.7139 36.6858 96.3162 37.0621 95.5963 37.1141C95.9743 38.2848 95.9883 38.2479 97.2813 38.2444C98.0055 38.2422 98.7321 38.2006 99.4545 38.1656C100.925 38.0942 102.353 37.8317 103.804 37.5986C104.357 37.5094 105.142 37.207 105.693 37.2678C106.704 37.3787 106.507 37.4879 106.34 38.3488C106.114 39.516 106.369 40.3994 106.662 41.6662C104.932 41.0768 106.322 42.8805 107.138 43.2518C108.745 43.9826 110.712 44.7651 112.499 44.8625ZM17.92 115.403C19.1442 116.014 20.3006 116.589 21.4159 117.371C22.5256 118.148 23.7092 119.456 25.1139 119.707C26.7942 120.007 27.1987 119.136 27.6145 117.848C28.0817 116.4 28.5094 115.743 29.8375 114.948C32.1879 113.543 34.9411 112.617 37.5096 111.605C38.4922 111.218 38.5661 111.292 38.2754 110.297C38.0998 109.696 37.8856 109.105 37.6555 108.522C37.2303 107.445 36.7645 106.304 36.053 105.364C31.9799 108.038 27.1221 111.138 22.1081 111.781C20.0721 112.042 18.0657 112.5 16.0688 112.673C15.0801 112.759 14.27 113.01 13.3991 113.435C12.4239 113.911 10.8108 114.078 10.1084 114.861C12.745 114.843 15.3131 115.18 17.92 115.403ZM117.811 118.908C116.995 119.244 118.097 121.173 118.333 121.976C118.687 123.183 119.021 124.394 119.378 125.6C120.133 128.152 120.845 130.715 121.562 133.278C126.286 130.714 131.341 129.247 136.588 128.021C141.815 126.798 147.154 125.929 152.495 125.092C155.414 124.635 158.475 124.011 161.178 122.822C162.858 122.082 162.53 121.4 162.502 119.763C162.476 118.226 162.235 116.66 161.999 115.138C161.554 112.263 161.084 109.129 159.923 106.428C158.791 103.796 157.278 101.265 155.822 98.7863C154.095 95.8447 152.624 92.6772 150.37 90.0656C148.021 87.3442 145.5 84.8756 142.953 82.342C141.428 85.234 139.252 88.7414 136.439 90.5619C133.345 92.5643 128.477 93.5938 124.958 91.9178C121.413 90.2297 119.318 86.767 117.111 83.7498C114.984 80.8418 113.136 77.6961 109.367 76.6586C105.38 75.5611 101.182 77.0549 97.2954 77.9908C92.8635 79.0578 88.5272 80.5887 84.2196 82.0348C76.7413 84.5459 69.3221 86.844 62.0327 89.8363C53.0608 93.5194 44.077 97.1735 35.4055 101.485C37.2815 104.168 38.7358 106.612 39.7954 109.697C40.6205 112.099 41.1246 114.643 41.3176 117.241C42.327 116.237 43.0981 115.042 44.1168 114.026C45.2692 112.876 46.6221 111.991 47.9778 111.09C50.4319 109.458 52.9471 107.98 55.6539 106.739C61.7981 103.922 68.327 101.981 74.8231 99.9733C76.2948 99.5184 78.027 98.9899 79.5524 98.7379C80.8485 98.524 81.9998 98.1483 83.3192 97.8363C86.3112 97.1295 89.3366 96.4809 92.3545 95.9688C98.153 94.985 104.07 93.9365 109.949 93.2565C113.935 92.7953 118.095 92.0475 122.191 92.4469C122.883 92.5145 123.561 92.651 124.258 92.6295C124.452 92.6235 124.683 92.336 124.885 92.3557C125.272 92.394 125.686 92.8266 126.081 92.9557C126.972 93.2469 128.266 93.066 128.752 93.7998C129.14 94.3875 128.998 94.853 128.419 95.2402C129.116 96.1252 130.48 96.9406 131.414 97.6365C132.253 98.2621 133.045 98.9352 133.892 99.5383C134.801 100.186 135.903 100.798 136.856 101.459C138.098 102.321 139.16 103.426 140.333 104.393C142.44 106.13 144.554 107.642 146.773 109.269C147.969 110.146 149.108 110.971 150.407 111.689C151.117 112.081 152.726 113.155 151.886 114.13C151.048 115.104 149.367 113.664 148.451 113.561C147.397 113.441 145.976 114.1 144.925 114.254C142.143 114.663 139.353 115.022 136.57 115.464C133.394 115.968 130.251 116.648 127.06 117.067C125.412 117.283 123.764 117.492 122.107 117.641C121.253 117.718 120.045 117.602 119.242 117.875C118.634 117.698 118.37 117.871 118.449 118.393C118.3 118.637 118.088 118.808 117.811 118.908ZM29.7977 46.2272C31.5356 46.216 33.2594 46.3162 34.9993 46.3012C35.669 46.2953 36.2456 46.4307 36.5166 45.9682C36.8479 45.4029 36.6952 43.9266 36.7518 43.2795C34.7202 43.4422 32.8559 43.4926 30.8278 43.3151C28.6555 43.125 26.5471 42.5053 24.3666 42.3711C24.8313 42.5473 25.3631 43.5067 25.0602 43.9735C24.7584 44.4381 24.2657 44.0186 23.7879 43.8082C21.9434 42.9959 20.4071 41.7957 18.335 42.3205C20.2426 43.3043 22.053 44.882 24.0452 45.4695C25.9239 46.0235 27.819 46.2123 29.7977 46.2272ZM158.867 14.24C159.713 14.398 161.363 15.2421 162.122 14.8168C163.049 14.2974 162.854 12.1911 162.888 11.3713C162.991 8.85173 163.183 5.38476 161.201 3.34237C160.842 5.76341 161.619 8.29503 161.563 10.743C161.521 12.58 160.827 11.5768 160.582 10.2767C160.357 9.0872 160.382 7.91386 160.076 6.73048C159.514 7.68876 159.383 8.98927 158.986 10.0473C158.486 11.3814 157.779 12.5916 157.066 13.8284C157.668 13.9593 158.268 14.0976 158.867 14.24ZM38.0495 47.3471C38.0391 48.0526 37.9385 48.7156 38.8217 48.7805C39.9911 48.866 39.6075 47.6748 39.5332 46.9231C39.1129 46.9799 38.1493 46.8627 38.0495 47.3471ZM158.379 15.3913C157.645 15.3007 157.534 15.135 157.069 15.6474C156.774 15.9725 156.745 16.5625 157.001 16.7672C158.112 17.6559 158.288 15.8901 158.379 15.3913ZM159.064 17.0272C159.635 17.1393 160.193 17.443 160.514 16.8774C160.984 16.0479 159.86 15.9785 159.244 15.7322C159.184 16.1638 159.124 16.5955 159.064 17.0272ZM123.209 95.074C116.9 94.925 110.685 95.9135 104.492 97.0016C99.0149 97.9639 93.5776 98.7658 88.2204 99.9735C77.4241 102.407 66.6096 105.131 56.5885 109.816C54.1539 110.954 51.7227 112.092 49.4786 113.476C48.2725 114.22 47.044 114.956 45.902 115.795C45.2739 116.256 44.6239 116.711 44.035 117.217C43.4955 117.68 43.1895 118.319 42.7049 118.772C42.4768 118.986 41.494 119.774 41.2026 119.863C40.5764 120.053 40.8245 120.069 40.1914 119.636C38.8684 118.731 38.6032 117.526 38.2043 116.076C37.9237 115.055 38.1391 114.717 37.217 114.752C36.7479 114.77 36.0416 115.246 35.6069 115.427C34.2024 116.01 32.6848 116.474 31.337 117.17C30.2473 117.732 29.3754 118.455 28.9086 119.568C28.3575 120.883 28.0372 121.956 26.3649 122.103C23.3821 122.366 21.6682 119.393 19.1176 118.392C16.3897 117.322 12.9082 117.532 10.028 117.498C8.97895 117.485 7.83657 117.586 6.83602 117.728C5.42217 117.928 3.7495 118.695 2.28208 118.207C0.593268 117.646 0.618678 115.247 1.73766 114.202C2.90768 113.111 4.64374 112.961 6.14022 112.599C9.16547 111.867 11.917 110.198 15.0051 109.685C18.0768 109.175 21.3315 109.064 24.326 108.135C25.852 107.661 27.3346 107.291 28.7846 106.625C30.5911 105.795 32.5368 105.254 34.3211 104.438C33.7071 103.36 33.5409 102.359 33.5034 101.15C33.4786 100.344 33.3473 100.343 33.9073 100.005C34.0182 100.063 34.1289 100.12 34.2401 100.178C34.5918 100.428 34.8424 100.314 34.9924 99.8354C37.469 98.3332 39.7581 96.7196 42.4006 95.4149C46.8329 93.2264 51.5248 91.4586 55.9557 89.374C64.3739 85.4139 73.7498 83.1289 82.6059 80.2278C87.9631 78.4727 93.4487 77.035 98.9379 75.7406C99.9 75.5137 100.859 75.3258 101.837 75.1752C103.494 74.9201 103.102 74.9049 103.938 73.6305C105.01 71.9951 106.713 70.2504 108.44 69.2371C109.506 68.6121 109.96 68.7059 109.927 67.3387C109.901 66.294 109.615 66.3043 108.76 65.6049C107.794 64.8135 106.896 63.9356 106.08 63.0024C105.148 61.9375 104.731 60.7305 103.952 59.636C103.01 58.3129 100.096 58.5375 98.4649 58.307C95.9102 57.9465 93.3131 57.6885 90.7967 57.1315C85.7149 56.0068 80.6065 55.6135 75.4614 54.8272C70.2893 54.0367 65.1188 53.316 59.9463 52.6C58.0895 52.343 56.2088 52.1221 54.3621 51.8035C51.777 51.3572 49.0565 51.3121 46.4336 50.8947C45.0832 50.6799 43.4293 49.9172 42.0709 49.9822C40.6129 50.0524 41.9166 50.0358 40.9577 50.5371C40.5272 50.7623 40.0293 50.9637 39.5332 50.9897C38.752 51.0307 37.9645 50.6961 37.4866 50.0996C36.6897 49.1055 37.0739 48.3438 35.4502 48.2184C34.3813 48.136 33.1338 48.5483 32.0477 48.6026C30.9834 48.6559 29.8768 48.8102 28.8122 48.7789C26.6831 48.716 24.1456 48.5289 22.2122 47.619C20.1631 46.6547 18.3346 45.3684 16.1791 44.5485C15.0975 44.1367 13.5586 43.9621 12.8336 42.967C12.2282 42.1363 12.0411 40.4467 12.9692 39.7654C14.393 38.7205 17.1536 40.3018 18.729 39.9068C19.5344 39.7049 18.8696 39.4617 19.4788 39.1803C19.8561 39.0059 19.7995 38.9797 20.2473 38.9166C21.3514 38.7602 23.1598 39.5334 24.2823 39.7172C26.4973 40.0791 28.693 40.6317 30.9061 40.9701C32.1698 41.1635 33.4545 41.2119 34.7209 41.4174C35.8239 41.5965 36.7303 42.0285 37.5307 41.1428C37.8682 40.7692 37.7651 40.384 38.3061 40.1891C38.7913 40.0147 40.1848 40.2651 40.6536 40.4447C41.1655 40.641 41.2799 40.924 41.6918 41.1477C41.7022 41.5711 41.8801 41.6979 42.226 41.5276C42.5479 41.5033 42.8688 41.5205 43.1881 41.5789C45.9995 41.5906 48.7975 40.7184 51.3543 39.6883C55.5914 37.9817 60.8524 33.15 65.7123 35.7781C66.9081 36.4246 67.6928 37.5029 68.8571 38.2035C69.8913 38.8254 71.2139 39.3826 72.3768 39.7334C74.7006 40.4344 77.0106 40.3467 79.3125 39.6209C82.1194 38.7356 84.3799 37.8084 87.4049 37.9102C90.2077 38.0043 92.4444 39.9391 95.1897 40.0162C94.519 38.9391 94.3948 37.7018 94.3239 36.4799C94.2776 35.6807 94.7239 33.5889 94.2403 32.942C93.7065 32.2276 89.5377 31.9387 91.8627 29.8414C92.6237 29.1545 94.0284 29.4033 94.8153 28.6449C95.6096 27.8797 95.6252 26.6828 96.0489 25.7274C96.5282 24.6463 97.3184 23.7533 98.1286 22.8906C98.4715 22.5254 98.7032 22.2936 98.8985 21.8545C99.1252 21.3449 98.9743 20.9145 99.3364 20.3776C100.559 18.5654 102.693 19.1963 104.549 19.4377C105.675 19.5842 107.038 19.4445 108.131 19.7518C109.009 19.9986 110.15 20.7471 110.865 21.2965C112.438 22.5065 112.804 24.7395 112.925 26.5692C112.996 27.6402 112.788 28.6496 112.771 29.717C112.752 30.8342 112.267 31.3404 111.395 32.0815C111.379 31.8752 111.278 31.7369 111.092 31.6664C110.713 32.1338 110.81 32.3162 111.385 32.2139C111.407 32.4934 111.506 32.7444 111.684 32.9674C112.159 33.4951 112.568 34.0783 113.031 34.6164C114.044 35.793 115.225 36.8141 116.004 38.1494C116.821 37.199 117.86 37.0432 118.835 36.3877C119.782 35.75 119.075 35.5602 119.426 34.6385C119.567 34.2692 119.938 34.2039 120.068 33.918C120.191 33.6469 120.041 33.4758 120.117 33.1779C120.496 31.699 120.339 30.7828 121.52 29.6235C123.1 28.0729 125.047 27.6629 127.219 27.3686C129.386 27.0746 130.924 26.9699 132.851 26.1139C133.519 25.8168 134.151 25.6813 134.786 25.3443C135.644 24.8885 136.443 24.4078 137.189 23.7928C138.922 22.3635 140 20.3721 141.401 18.6545C142.523 17.2801 143.875 15.5204 145.9 15.8833C148.203 16.2963 150.232 17.6957 152.683 16.9412C153.593 16.6613 153.494 16.8334 153.855 15.9517C153.975 15.6581 154.053 15.3623 154.169 15.0737C154.606 13.9933 155.443 13.8581 155.963 12.9784C157.188 10.9019 157.859 8.31237 158.557 6.03343C158.881 4.97513 159.509 4.05722 159.892 3.04243C160.052 2.61809 159.98 0.728192 160.476 0.56243C162.079 0.0282698 163.377 4.226 163.669 5.01995C164.433 7.0947 165.106 9.4361 164.804 11.6575C164.68 12.5728 164.581 13.6332 164.336 14.5295C164.114 15.3432 164.066 15.2897 164.193 16.0272C164.322 16.7772 164.476 17.227 164.365 18.0131C164.334 18.2326 164.234 19.044 164.14 19.1563C163.7 19.6787 163.641 19.3135 163.094 19.5223C162.21 19.8602 161.992 20.1504 161.366 20.9426C159.801 22.9229 158.167 24.9092 156.476 26.7893C153.509 30.0873 150.389 33.0438 147.059 35.977C143.79 38.8559 140.373 41.7766 136.663 44.1281C135.762 44.6998 134.279 45.2012 133.554 45.951C132.759 46.7723 133.964 47.1285 134.779 47.7111C136.397 48.8682 138.062 50.0529 139.474 51.4022C142.483 54.2781 144.202 58.5156 145.257 62.3639C145.805 64.3664 145.918 66.6621 146.126 68.7362C146.369 71.169 146.068 73.8313 145.3 76.1455C145.009 77.0233 144.667 77.883 144.385 78.7645C144.255 79.1703 143.616 80.4307 143.789 80.899C144.076 81.6729 145.956 82.6129 146.613 83.1508C147.511 83.8865 148.43 84.6467 149.182 85.5233C152.382 89.2524 154.999 93.1658 157.35 97.4559C159.741 101.819 161.998 105.756 162.942 110.661C163.188 111.942 163.407 113.225 163.667 114.505C163.945 115.881 163.676 117.867 164.233 119.125C164.578 119.903 165.223 120.148 164.96 121.224C164.733 122.154 163.579 123.805 162.951 124.538C161.522 126.206 158.914 126.863 156.855 127.467C154.355 128.201 151.682 128.539 149.108 128.957C139.837 130.46 130.751 132.102 122.17 135.955C122.458 136.376 122.691 137.285 122.105 137.575C121.327 137.96 120.945 136.817 120.677 136.312C119.898 134.841 119.666 132.94 119.2 131.329C118.064 127.399 117.202 123.428 116.277 119.455C113.122 120.119 109.926 120.472 106.787 121.088C105.339 121.372 103.871 121.399 102.413 121.578C100.847 121.77 100.747 122.263 100.871 123.757C101.143 127.052 102.459 130.213 103.209 133.417C103.573 134.971 104.21 136.451 104.557 137.997C104.67 138.501 104.547 139.856 104.902 140.232C104.887 140.216 106.098 140.456 106.289 140.505C106.186 138.558 106.414 136.649 106.317 134.706C106.217 132.699 105.942 130.067 106.391 128.123C106.799 126.356 108.356 124.487 110.074 123.741C111.571 123.091 114.541 122.049 116.157 123.013C116.441 123.182 117.125 123.707 116.966 124.114C116.75 124.664 114.358 125.085 113.872 125.255C111.971 125.922 109.96 127.089 108.895 128.782C107.936 130.305 108.319 132.659 108.351 134.406C108.369 135.399 108.498 136.321 108.378 137.31C108.208 138.71 108.119 139.216 108.691 140.425C109.362 141.841 108.948 143.91 106.939 143.4C105.737 143.096 105.689 142.44 104.965 141.727C104.691 141.457 104.384 141.577 104.115 141.236C103.756 140.78 103.758 139.77 103.576 139.194C102.994 137.35 102.17 135.557 101.554 133.702C100.727 131.207 100.049 128.682 99.4557 126.128C98.9946 124.143 98.4946 122.132 99.4532 120.2C100.304 118.485 102.388 118.612 104.116 118.551C108.117 118.408 112.253 117.54 116.336 117.331C116.63 117.316 117.243 117.416 117.506 117.294C117.87 117.125 118.008 116.633 118.479 116.319C119.379 115.719 121.158 115.51 122.198 115.326C124.557 114.907 126.903 114.567 129.247 114.13C131.943 113.628 134.613 113.028 137.311 112.572C139.894 112.135 142.504 112.052 145.118 111.755C140.971 109.08 137.318 105.82 133.328 102.922C131.478 101.578 129.763 100.256 128.103 98.7028C127.411 98.0559 126.727 97.4268 126.099 96.7217C125.766 96.3479 125.472 95.6336 125.049 95.3729C124.517 95.0447 123.911 95.1324 123.209 95.074Z" fill="#252525"/>
<path fillRule="evenodd" clipRule="evenodd" d="M107.987 19.7711C106.615 19.6516 105.043 19.643 103.712 19.3377C104.888 19.4393 106.911 19.3733 107.987 19.7711Z" fill="#252525"/>
<path fillRule="evenodd" clipRule="evenodd" d="M32.5899 41.2063C32.0061 41.1549 31.4223 41.1033 30.8389 41.052C31.4348 40.9652 32.0172 41.0307 32.5899 41.2063Z" fill="#252525"/>
<path fillRule="evenodd" clipRule="evenodd" d="M68.5338 53.9086C68.9239 53.9422 69.3137 53.9756 69.7012 54.0095C69.3104 53.9761 68.9221 53.9424 68.5338 53.9086Z" fill="#252525"/>
<path fillRule="evenodd" clipRule="evenodd" d="M108.274 134.534C108.291 134.078 108.308 133.621 108.325 133.166C108.308 133.622 108.291 134.078 108.274 134.534Z" fill="#252525"/>
<path fillRule="evenodd" clipRule="evenodd" d="M106.133 138.072C106.126 138.398 106.12 138.725 106.113 139.05C106.12 138.723 106.126 138.397 106.133 138.072Z" fill="#252525"/>
<path fillRule="evenodd" clipRule="evenodd" d="M59.0524 52.475C59.3115 52.5078 59.5707 52.5407 59.828 52.5737C59.5678 52.5407 59.3102 52.5078 59.0524 52.475Z" fill="#252525"/>
<path fillRule="evenodd" clipRule="evenodd" d="M102.933 19.2725C102.609 19.2453 102.284 19.2182 101.96 19.1912C102.285 19.2182 102.609 19.2453 102.933 19.2725Z" fill="#252525"/>
<path fillRule="evenodd" clipRule="evenodd" d="M106.191 132.979C106.181 133.305 106.172 133.632 106.163 133.957C106.172 133.63 106.181 133.305 106.191 132.979Z" fill="#252525"/>
<path fillRule="evenodd" clipRule="evenodd" d="M57.4948 52.3491C57.7547 52.3752 58.0147 52.4016 58.2723 52.4272C58.0114 52.4008 57.7532 52.3748 57.4948 52.3491Z" fill="#252525"/>
<path fillRule="evenodd" clipRule="evenodd" d="M61.5635 52.9039C61.8239 52.9281 62.0838 52.9524 62.3415 52.9762C62.0803 52.952 61.8219 52.928 61.5635 52.9039Z" fill="#252525"/>
<path fillRule="evenodd" clipRule="evenodd" d="M104.052 118.532C103.725 118.534 103.398 118.536 103.071 118.538C103.398 118.536 103.725 118.534 104.052 118.532Z" fill="#252525"/>
<path fillRule="evenodd" clipRule="evenodd" d="M92.7186 57.5938C92.9139 57.6098 93.1093 57.6256 93.3026 57.642C93.1065 57.6262 92.9126 57.61 92.7186 57.5938Z" fill="#252525"/>
<path fillRule="evenodd" clipRule="evenodd" d="M106.319 136.323C106.296 136.583 106.273 136.843 106.251 137.102C106.274 136.842 106.296 136.582 106.319 136.323Z" fill="#252525"/>
<path fillRule="evenodd" clipRule="evenodd" d="M123.155 95.1545C123.35 95.1709 123.545 95.1869 123.739 95.2037C123.542 95.1877 123.348 95.1711 123.155 95.1545Z" fill="#252525"/>
<path fillRule="evenodd" clipRule="evenodd" d="M24.6817 39.7192C24.4245 39.6707 24.1674 39.6225 23.9102 39.574C24.1672 39.6225 24.4245 39.6707 24.6817 39.7192Z" fill="#252525"/>
<path fillRule="evenodd" clipRule="evenodd" d="M120.414 95.1018C120.544 95.1186 120.674 95.1358 120.802 95.152C120.672 95.1352 120.543 95.1184 120.414 95.1018Z" fill="#252525"/>
<path fillRule="evenodd" clipRule="evenodd" d="M93.5198 32.75C93.6493 32.7699 93.7789 32.7898 93.9067 32.81C93.7766 32.7896 93.6483 32.7699 93.5198 32.75Z" fill="#252525"/>
<path fillRule="evenodd" clipRule="evenodd" d="M145.928 73.5209C145.945 73.3262 145.961 73.1315 145.979 72.9371C145.962 73.1321 145.945 73.3266 145.928 73.5209Z" fill="#252525"/>
<path fillRule="evenodd" clipRule="evenodd" d="M99.5116 58.3832C99.642 58.3944 99.7723 58.4053 99.9008 58.4164C99.7698 58.4051 99.6408 58.3942 99.5116 58.3832Z" fill="#252525"/>
<path fillRule="evenodd" clipRule="evenodd" d="M46.4377 50.9984C46.5684 51.0072 46.6987 51.0158 46.8274 51.0248C46.6965 51.0162 46.5672 51.0072 46.4377 50.9984Z" fill="#252525"/>
<path fillRule="evenodd" clipRule="evenodd" d="M26.1092 45.8123C26.7118 45.8654 27.2733 45.8863 27.8512 46.0703C27.285 46.0272 26.6151 46.0926 26.1092 45.8123Z" fill="#252525"/>
<path fillRule="evenodd" clipRule="evenodd" d="M32.3578 46.1006C32.7787 45.9787 33.4819 46.0303 33.9162 46.2145C33.3969 46.1764 32.8772 46.1385 32.3578 46.1006Z" fill="#252525"/>
<path fillRule="evenodd" clipRule="evenodd" d="M112.451 44.9453C112.905 44.9834 113.359 45.0219 113.813 45.06C113.347 45.1711 112.889 45.1742 112.451 44.9453Z" fill="#252525"/>
<path fillRule="evenodd" clipRule="evenodd" d="M158.372 15.3212C158.048 15.2801 157.724 15.239 157.402 15.1978C157.727 15.2389 158.049 15.28 158.372 15.3212Z" fill="#252525"/>
<path fillRule="evenodd" clipRule="evenodd" d="M16.6954 115.316C17.1041 115.125 17.4846 115.258 17.8629 115.416C17.4735 115.383 17.0846 115.35 16.6954 115.316Z" fill="#252525"/>
<path fillRule="evenodd" clipRule="evenodd" d="M41.0479 46.1117C41.0416 46.4383 41.0358 46.765 41.0293 47.0904C41.0356 46.7635 41.0418 46.4375 41.0479 46.1117Z" fill="#252525"/>
<path fillRule="evenodd" clipRule="evenodd" d="M28.8231 46.1649C29.1498 46.1639 29.477 46.1629 29.8038 46.1619C29.4768 46.1629 29.1498 46.1639 28.8231 46.1649Z" fill="#252525"/>
<path fillRule="evenodd" clipRule="evenodd" d="M112.655 49.3287C112.395 49.3119 112.134 49.2955 111.876 49.2783C112.137 49.2949 112.396 49.3117 112.655 49.3287Z" fill="#252525"/>
<path fillRule="evenodd" clipRule="evenodd" d="M40.4297 111.345C40.4293 111.672 40.4286 111.999 40.4282 112.325C40.4286 111.998 40.4291 111.672 40.4297 111.345Z" fill="#252525"/>
<path fillRule="evenodd" clipRule="evenodd" d="M96.7504 56.3297C97.0719 56.3892 97.3938 56.4484 97.7151 56.508C97.3932 56.4484 97.0717 56.389 96.7504 56.3297Z" fill="#252525"/>
<path fillRule="evenodd" clipRule="evenodd" d="M30.251 43.2912C29.9901 43.277 29.7289 43.2629 29.4704 43.2496C29.7321 43.2641 29.9916 43.2776 30.251 43.2912Z" fill="#252525"/>
<path fillRule="evenodd" clipRule="evenodd" d="M94.6294 55.924C94.951 55.983 95.2723 56.042 95.5942 56.1008C95.2651 56.0855 94.9161 56.1891 94.6294 55.924Z" fill="#252525"/>
<path fillRule="evenodd" clipRule="evenodd" d="M33.3637 43.5672C33.1678 43.5566 32.9721 43.5461 32.7784 43.5353C32.9747 43.5459 33.1694 43.5564 33.3637 43.5672Z" fill="#252525"/>
<path fillRule="evenodd" clipRule="evenodd" d="M89.442 54.7084C89.7633 54.7687 90.0848 54.8295 90.4065 54.8898C90.0846 54.8293 89.7633 54.7687 89.442 54.7084Z" fill="#252525"/>
<path fillRule="evenodd" clipRule="evenodd" d="M159.003 17.0715C159.324 17.133 159.646 17.1945 159.967 17.256C159.645 17.1945 159.324 17.133 159.003 17.0715Z" fill="#252525"/>
<path fillRule="evenodd" clipRule="evenodd" d="M77.6547 52.7399C77.9785 52.7719 78.3028 52.8041 78.6266 52.836C78.3026 52.8039 77.9785 52.7719 77.6547 52.7399Z" fill="#252525"/>
<path fillRule="evenodd" clipRule="evenodd" d="M158.852 14.3163C159.173 14.3761 159.495 14.4356 159.816 14.4953C159.495 14.4355 159.173 14.3761 158.852 14.3163Z" fill="#252525"/>
<path fillRule="evenodd" clipRule="evenodd" d="M41.0555 47.528C41.3805 47.55 41.7055 47.5719 42.0301 47.5938C41.6932 47.7653 41.3694 47.725 41.0555 47.528Z" fill="#252525"/>
<path fillRule="evenodd" clipRule="evenodd" d="M105.418 27.8243C105.442 27.5647 105.466 27.3049 105.49 27.0463C105.466 27.3065 105.442 27.5655 105.418 27.8243Z" fill="#252525"/>
<path fillRule="evenodd" clipRule="evenodd" d="M105.333 28.7971C105.357 28.5373 105.381 28.2778 105.405 28.0192C105.381 28.2793 105.357 28.5381 105.333 28.7971Z" fill="#252525"/>
<path fillRule="evenodd" clipRule="evenodd" d="M106.381 76.2303C106.185 76.2176 105.989 76.2049 105.796 76.1924C105.992 76.2051 106.187 76.2176 106.381 76.2303Z" fill="#252525"/>
<path fillRule="evenodd" clipRule="evenodd" d="M123.385 39.9832C123.355 40.2424 123.325 40.5014 123.295 40.7596C123.325 40.5002 123.355 40.2416 123.385 39.9832Z" fill="#252525"/>
<path fillRule="evenodd" clipRule="evenodd" d="M127.57 89.5103C127.897 89.5068 128.224 89.5031 128.551 89.4996C128.224 89.5031 127.896 89.5068 127.57 89.5103Z" fill="#252525"/>
<path fillRule="evenodd" clipRule="evenodd" d="M105.676 37.223C105.95 37.0818 106.21 37.0965 106.454 37.2902C106.195 37.268 105.936 37.2455 105.676 37.223Z" fill="#252525"/>
<path fillRule="evenodd" clipRule="evenodd" d="M107.881 34.4252C107.752 34.4049 107.623 34.3844 107.495 34.3643C107.625 34.3848 107.753 34.4049 107.881 34.4252Z" fill="#252525"/>
<path fillRule="evenodd" clipRule="evenodd" d="M109.135 73.884C109.392 73.9365 109.649 73.9891 109.905 74.0414C109.648 73.9889 109.392 73.9365 109.135 73.884Z" fill="#252525"/>
<path fillRule="evenodd" clipRule="evenodd" d="M100.267 94.567C100.529 94.5609 100.791 94.5551 101.053 94.549C100.791 94.5549 100.529 94.5611 100.267 94.567Z" fill="#252525"/>
<path fillRule="evenodd" clipRule="evenodd" d="M94.6828 95.649C94.9449 95.6416 95.2067 95.634 95.469 95.6268C95.2069 95.634 94.9451 95.6416 94.6828 95.649Z" fill="#252525"/>
<path fillRule="evenodd" clipRule="evenodd" d="M92.2961 96.0369C92.5586 96.0238 92.8215 96.0109 93.0838 95.9979L92.2961 96.0369Z" fill="#252525"/>
<path fillRule="evenodd" clipRule="evenodd" d="M89.9106 96.4137L90.6977 96.3799C90.4352 96.3912 90.1727 96.4023 89.9106 96.4137Z" fill="#252525"/>
<path fillRule="evenodd" clipRule="evenodd" d="M140.234 115.065C140.038 115.056 139.842 115.047 139.648 115.038C139.845 115.047 140.04 115.056 140.234 115.065Z" fill="#252525"/>
<path fillRule="evenodd" clipRule="evenodd" d="M148.592 19.5377C148.461 19.5303 148.331 19.523 148.202 19.5158C148.333 19.5234 148.462 19.5305 148.592 19.5377Z" fill="#252525"/>
<path fillRule="evenodd" clipRule="evenodd" d="M32.3895 43.4969C32.2596 43.4819 32.1295 43.4672 32.0014 43.4526C32.1319 43.4672 32.2606 43.4821 32.3895 43.4969Z" fill="#252525"/>
<path fillRule="evenodd" clipRule="evenodd" d="M87.3356 54.1349C87.5924 54.1879 87.8492 54.2406 88.1059 54.2935C87.8491 54.2406 87.5924 54.1879 87.3356 54.1349Z" fill="#252525"/>
<path fillRule="evenodd" clipRule="evenodd" d="M57.9647 49.2205C58.2219 49.2682 58.4792 49.3158 58.7364 49.3635C58.4792 49.3158 58.2217 49.268 57.9647 49.2205Z" fill="#252525"/>
<path fillRule="evenodd" clipRule="evenodd" d="M38.0022 47.4137C38.0014 47.61 38.0006 47.8063 37.9997 48.0016C38.0006 47.8051 38.0014 47.6094 38.0022 47.4137Z" fill="#252525"/>
<path fillRule="evenodd" clipRule="evenodd" d="M35.2778 46.3392C35.5399 46.3314 35.8018 46.3236 36.0641 46.3156C35.802 46.3238 35.5399 46.3314 35.2778 46.3392Z" fill="#252525"/>
<path fillRule="evenodd" clipRule="evenodd" d="M42.4243 47.5711C42.6942 47.4608 42.9592 47.4137 43.203 47.633C42.9434 47.6123 42.6836 47.5918 42.4243 47.5711Z" fill="#252525"/>
<path fillRule="evenodd" clipRule="evenodd" d="M132.381 63.3422C133.322 63.4873 133.767 63.6994 134.021 64.6111C134.139 65.034 133.799 65.8293 133.913 66.0961C134.066 66.4502 134.294 66.2627 134.56 66.5984C135.531 67.826 136.039 70.2701 134.141 71.1174C133.43 70.2519 133.678 69.2471 134.165 68.3527C133.14 68.1164 132.609 68.0807 132.293 67.0549C132.255 66.932 132.178 65.4254 132.147 65.3928C131.935 65.1717 131.077 65.3949 130.783 65.2301C130.133 64.8652 129.827 63.6445 129.99 62.9578C130.215 62.0107 131.216 61.5269 131.977 60.9957C129.536 61.0557 127.291 62.8992 124.85 63.0227C124.171 63.0568 124.001 63.359 123.765 62.5932C123.556 61.9129 123.782 62.0012 124.243 61.6631C125.155 60.9932 126.556 60.5517 127.634 60.1697C129.199 59.6146 131.899 58.3146 133.595 59.0416C134.441 59.4041 135.041 60.5164 134.782 61.3853C134.529 62.233 133.068 62.8322 132.381 63.3422Z" fill="#252525"/>
<path fillRule="evenodd" clipRule="evenodd" d="M133.359 50.7201C134.057 51.809 134.364 52.9592 133.608 54.1086C134.683 54.0207 135.879 53.8244 136.579 54.7969C137.591 56.2024 136.545 56.6629 135.366 56.743C134.418 56.8074 132.538 57.419 131.708 56.7803C130.343 55.7305 131.701 53.7434 132.227 52.7379C131.36 52.7652 129.172 53.0213 129.549 51.3984C129.822 50.2287 132.507 50.5248 133.359 50.7201Z" fill="#252525"/>
<path fillRule="evenodd" clipRule="evenodd" d="M122.173 57.7737L121.328 58.7696C121.756 58.8653 122.337 58.502 122.715 58.3491C122.534 58.1573 122.354 57.9655 122.173 57.7737ZM120.888 56.4323C119.883 56.2913 118.798 57.6045 118.567 56.137C118.432 55.277 119.237 54.1754 120.184 54.0432C121.835 53.8126 124.144 57.5575 124.557 58.8483C124.938 60.0379 124.532 59.8737 123.658 60.3143C122.902 60.6958 121.919 61.5813 120.937 61.3131C120.039 61.0678 119.762 59.6299 119.766 58.8805C119.773 57.7254 120.467 57.3536 120.888 56.4323Z" fill="#252525"/>
<path fillRule="evenodd" clipRule="evenodd" d="M126.005 56.4277C126.156 56.892 127.253 59.0629 126.28 59.0576C125.739 59.0549 124.719 55.9221 124.573 55.5639C124.373 55.0721 123.951 54.394 124.026 53.8367C124.154 52.8733 124.1 53.1774 124.753 53.2822C126.026 53.4869 127.078 55.4238 128.28 55.915C127.782 54.0656 127.035 52.0385 127.546 50.1502C128.979 51.4742 129.041 54.2016 129.434 56.0133C129.553 56.5647 129.838 57.6942 129.234 58.068C128.551 58.4908 126.466 56.7211 126.005 56.4277Z" fill="#252525"/>
<path fillRule="evenodd" clipRule="evenodd" d="M116.862 60.4159C117.337 59.4192 117.847 58.253 116.094 58.6219C116.35 59.22 116.606 59.8178 116.862 60.4159ZM116.294 56.2465C117.798 56.127 118.654 58.101 118.81 59.2485C118.934 60.1635 117.982 63.3573 116.698 62.3932C116.219 62.034 115.95 61.0522 115.637 60.5557C115.208 59.8758 114.608 59.2278 114.282 58.4967C113.593 56.9483 114.829 56.2506 116.294 56.2465Z" fill="#252525"/>
<path fillRule="evenodd" clipRule="evenodd" d="M116.361 56.2783C116.033 56.2826 115.706 56.2871 115.379 56.2914C115.706 56.2871 116.034 56.2826 116.361 56.2783Z" fill="#252525"/>
<path fillRule="evenodd" clipRule="evenodd" d="M133.503 50.8239C133.247 50.7653 132.99 50.7065 132.734 50.6479C132.99 50.7065 133.247 50.7651 133.503 50.8239Z" fill="#252525"/>
<path fillRule="evenodd" clipRule="evenodd" d="M135.565 54.1492C135.305 54.1258 135.046 54.1025 134.787 54.0789C135.061 53.9373 135.32 53.9631 135.565 54.1492Z" fill="#252525"/>
<path fillRule="evenodd" clipRule="evenodd" d="M99.5675 28.6848C100.835 29.5944 98.0298 33.0012 96.9185 30.2391C96.6083 29.4682 96.705 28.5108 97.5231 28.7108C97.8915 28.8006 97.9421 29.3561 98.4534 29.377C98.9606 29.3977 99.2097 28.9619 99.5675 28.6848Z" fill="#252525"/>
<path fillRule="evenodd" clipRule="evenodd" d="M106.929 31.8776C106.949 31.1963 108.257 29.8432 109.003 30.7375C109.751 31.6348 107.495 31.8565 106.929 31.8776Z" fill="#252525"/>
</svg>
