<svg width="21" height="19" viewBox="0 0 21 19" fill="none" xmlns="http://www.w3.org/2000/svg">
<path d="M19.6665 6.99999H5.6665V4.11299C5.6665 3.11599 6.3445 2.18999 7.3275 2.02799C7.61463 1.97914 7.90896 1.99348 8.18997 2.07004C8.47098 2.14659 8.73192 2.28351 8.9546 2.47124C9.17727 2.65898 9.35633 2.89302 9.47928 3.15705C9.60223 3.42107 9.66612 3.70874 9.6665 3.99999H11.6665C11.666 3.44129 11.5486 2.88888 11.3218 2.3783C11.0949 1.86771 10.7637 1.41026 10.3495 1.03538C9.93523 0.660494 9.44709 0.376478 8.91646 0.201602C8.38584 0.0267266 7.82448 -0.0351361 7.2685 0.0199945C5.1895 0.221994 3.6665 2.08899 3.6665 4.17799V6.99999H1.6665C1.40129 6.99999 1.14693 7.10535 0.959397 7.29289C0.771861 7.48042 0.666504 7.73478 0.666504 7.99999V9.99999C0.666504 12.606 2.3405 14.823 4.6665 15.65V19H6.6665V16H14.6665V19H16.6665V15.65C18.9925 14.823 20.6665 12.606 20.6665 9.99999V7.99999C20.6665 7.73478 20.5611 7.48042 20.3736 7.29289C20.1861 7.10535 19.9317 6.99999 19.6665 6.99999Z" fill="#FF904C"/>
</svg>
