<svg width="19" height="22" viewBox="0 0 19 22" fill="none" xmlns="http://www.w3.org/2000/svg">
<path d="M18.4667 11.8C18.4667 17.096 14.9627 21.4 9.6667 21.4C4.3707 21.4 0.866699 17.096 0.866699 11.8C2.63435 11.8149 4.35369 12.3787 5.78689 13.4135C7.22009 14.4483 8.29632 15.9028 8.8667 17.576V10.2H4.8667C4.23018 10.2 3.61973 9.94715 3.16964 9.49706C2.71956 9.04698 2.4667 8.43653 2.4667 7.80001V3.00001C2.4667 2.8321 2.51953 2.66845 2.61771 2.53224C2.71588 2.39603 2.85443 2.29416 3.01372 2.24106C3.17301 2.18796 3.34496 2.18633 3.50523 2.2364C3.6655 2.28646 3.80596 2.38568 3.9067 2.52001L6.3547 5.72001L8.9947 0.920008C9.06722 0.80773 9.16672 0.715413 9.28411 0.651491C9.4015 0.587568 9.53304 0.554077 9.6667 0.554077C9.80036 0.554077 9.9319 0.587568 10.0493 0.651491C10.1667 0.715413 10.2662 0.80773 10.3387 0.920008L12.9787 5.72001L15.4267 2.52001C15.5274 2.38568 15.6679 2.28646 15.8282 2.2364C15.9884 2.18633 16.1604 2.18796 16.3197 2.24106C16.479 2.29416 16.6175 2.39603 16.7157 2.53224C16.8139 2.66845 16.8667 2.8321 16.8667 3.00001V7.80001C16.8667 8.43653 16.6138 9.04698 16.1638 9.49706C15.7137 9.94715 15.1032 10.2 14.4667 10.2H10.4667V17.576C11.0371 15.9028 12.1133 14.4483 13.5465 13.4135C14.9797 12.3787 16.699 11.8149 18.4667 11.8Z" fill="#FF904C"/>
</svg>
