<svg width="200" height="42" viewBox="0 0 200 42" fill="none" xmlns="http://www.w3.org/2000/svg">
<path d="M99.4395 35.8961L101.659 32.9577C101.659 32.9577 103.212 34.217 104.988 34.4269C106.111 34.5596 107.873 34.4269 107.873 33.3775C107.873 31.9079 104.1 32.3281 101.659 30.649C100.435 29.8072 99.9345 28.7483 99.8833 27.5008C99.7628 24.5625 102.842 22.8838 105.876 22.8838C109.205 22.8838 111.646 24.7727 111.646 24.7727L109.427 27.7107C109.427 27.7107 107.873 26.6613 106.542 26.4514C105.43 26.2762 103.878 26.3796 103.878 27.5008C103.878 28.7601 107.622 28.7145 109.649 29.8095C111.202 30.649 111.732 31.8665 111.646 33.5878C111.51 36.3241 108.317 37.9949 105.876 37.9949C102.325 37.9949 99.4395 35.8961 99.4395 35.8961Z" fill="#03488B"/>
<path d="M114.273 22.8838V37.9949H118.199V29.106L120.599 34.8838H123.871L126.488 29.106V37.9949H129.978V22.8838H125.834L122.344 30.6616L118.417 22.8838H114.273Z" fill="#03488B"/>
<path fillRule="evenodd" clipRule="evenodd" d="M132.16 37.9949H136.304L136.954 35.7727H141.934L142.63 37.9949H146.557L141.54 22.8838H137.177L132.16 37.9949ZM139.358 27.5505L137.975 32.2811H140.84L139.358 27.5505Z" fill="#03488B"/>
<path fillRule="evenodd" clipRule="evenodd" d="M152.665 37.9958H148.738V22.8842H155.937C156.591 22.8842 160.299 23.5513 160.299 28.4398C160.299 31.7735 157.245 32.662 157.245 32.662C157.9 32.6624 160.736 37.9958 160.736 37.9958H155.937C155.428 36.4402 153.842 33.5509 153.319 33.5509H152.665V37.9958ZM152.665 26.4402V29.9958H154.191C154.846 29.9958 155.937 29.7735 155.937 28.4398C155.937 27.0068 155.4 26.4402 154.191 26.4402H152.665Z" fill="#03488B"/>
<path d="M161.826 26.4446V22.8886H173.606V26.4446H169.679V38.0001H165.753V26.4446H161.826Z" fill="#03488B"/>
<path d="M175.787 38.0001L185.821 37.9958V34.4446H179.931V22.8842H175.787V38.0001Z" fill="#03488B"/>
<path d="M186.476 22.8842L191.274 32.6668V38.0001H195.201V32.6668L200 22.8886H195.855L193.238 28.889L190.838 22.8886L186.476 22.8842Z" fill="#03488B"/>
<path d="M58.4301 38H68.6824V34.6667H62.3565V32.2222H67.5918V28.6667H62.3565V26.4444H68.6824V22.8885H58.4301V38Z" fill="#FF904C"/>
<path d="M71.7363 38V22.8885H75.6628L79.8073 31.1111V22.8885H83.7338V38H79.8073L75.6628 29.7778V38H71.7363Z" fill="#FF904C"/>
<path d="M86.3514 26.4444V22.8885H98.1307V26.4444H94.2043V38H90.2778V26.4444H86.3514Z" fill="#FF904C"/>
<path fillRule="evenodd" clipRule="evenodd" d="M48.1777 38H44.2513V22.8885H51.4497C52.1041 22.8885 55.8124 23.5555 55.8124 28.444C55.8124 31.7777 52.7585 32.6662 52.7585 32.6662C53.4129 32.6666 56.2487 38 56.2487 38H51.4497C50.9407 36.4444 49.3556 33.5551 48.8321 33.5551H48.1777V38ZM48.1777 26.4444V30H49.7046C50.3591 30 51.4497 29.7778 51.4497 28.444C51.4497 27.011 50.9136 26.4444 49.7046 26.4444H48.1777Z" fill="#FF904C"/>
<path d="M13.53 28.2222C13.9734 22.7471 18.4758 18.4444 23.9647 18.4444C28.5811 18.4444 32.4998 21.4881 33.8926 25.713L32.4719 26.2222L36.5817 30.0739L37.7072 24.6667L36.0236 25.2003C34.3981 19.9939 29.6137 16.2222 23.9647 16.2222C17.9188 16.2222 12.8634 20.5423 11.6108 26.3177L13.53 28.2222Z" fill="#FF904C"/>
<path d="M19.3838 31.7778H22.0014C22.0014 32.7378 22.874 33.5556 23.9647 33.5556C25.458 33.5556 26.3641 32.7378 26.3641 31.7778C26.3641 30.8 25.7603 30.4444 23.7448 29.9733C21.8025 29.5022 19.6019 28.6667 19.6019 26.4444C19.6019 24.8533 20.7306 23.5022 22.5904 23.0489V21.1111H25.3389V23.0489C26.8004 23.0489 28.3274 24.4089 28.3274 26H25.9279C25.9279 25.04 25.0553 24.6667 23.9647 24.6667C22.5904 24.6667 22.2196 25.5556 22.2196 26.2222C22.2196 26.8889 23.0398 27.5289 25.0553 28C26.9976 28.4711 28.5455 29.3067 28.5455 31.7778C28.5455 33.3689 27.4548 35.1733 25.3389 35.1733V37.1111H22.5904V35.1733C20.9108 35.1733 19.3838 33.3689 19.3838 31.7778Z" fill="#FF904C"/>
<path d="M21.7561 0.439319C21.1709 -0.139311 20.2426 -0.14734 19.6478 0.421085L0.901267 18.3376C-0.973222 20.1291 0.271217 23.3333 2.84147 23.3333H5.85936V38.4444C5.85936 39.3036 6.54299 40 7.3863 40H17.1924C19.1505 41.2665 21.4735 42 23.9647 42C30.2082 42 35.3955 37.3927 36.4292 31.3333L34.4262 29.5556C34.1975 35.2405 29.6012 39.7778 23.9647 39.7778C19.3246 39.7778 15.3895 36.703 14.0156 32.4444L15.6755 31.7778L11.9339 28L10.6584 33.5556L11.9339 33.1111C12.3743 34.4866 13.0356 35.7603 13.8752 36.8889H8.91325V21.7778C8.91325 20.9187 8.22961 20.2222 7.3863 20.2222H3.39281L20.6747 3.70562L27.0457 10.0051C27.4859 10.4404 28.139 10.565 28.704 10.3216C29.269 10.0781 29.6361 9.51383 29.6361 8.88889V5.11111H32.4719V14.6667C32.4719 15.0902 32.6414 15.4955 32.9414 15.7888L38.3948 21.1222C39.0031 21.7171 39.9697 21.697 40.5537 21.0773C41.1378 20.4575 41.118 19.4728 40.5097 18.8778L35.5258 14.0037V3.55556C35.5258 2.69645 34.8421 2 33.9988 2H28.1092C27.2659 2 26.5822 2.69645 26.5822 3.55556V5.21131L21.7561 0.439319Z" fill="#FF904C"/>
</svg>
