<svg width="11" height="23" viewBox="0 0 11 23" fill="none" xmlns="http://www.w3.org/2000/svg">
<path d="M5.408 23H4.908V23.5H5.408V23ZM5.408 7.832H5.908V7.332H5.408V7.832ZM0.96 7.832H0.46V8.332H0.96V7.832ZM0.96 2.936V2.436H0.46V2.936H0.96ZM5.408 0.599998V0.0999985H4.908V0.599998H5.408ZM10.528 0.599998H11.028V0.0999985H10.528V0.599998ZM10.528 23V23.5H11.028V23H10.528ZM5.908 23V7.832H4.908V23H5.908ZM5.408 7.332H0.96V8.332H5.408V7.332ZM1.46 7.832V2.936H0.46V7.832H1.46ZM0.96 3.436H4.416V2.436H0.96V3.436ZM4.416 3.436C4.82784 3.436 5.2276 3.32882 5.51912 3.0279C5.80778 2.72993 5.908 2.3265 5.908 1.912H4.908C4.908 2.18017 4.84289 2.28874 4.80088 2.3321C4.76173 2.37251 4.66549 2.436 4.416 2.436V3.436ZM5.908 1.912V0.599998H4.908V1.912H5.908ZM5.408 1.1H10.528V0.0999985H5.408V1.1ZM10.028 0.599998V23H11.028V0.599998H10.028ZM10.528 22.5H5.408V23.5H10.528V22.5Z" fill="#FF904C"/>
</svg>
