<svg width="17" height="24" viewBox="0 0 17 24" fill="none" xmlns="http://www.w3.org/2000/svg">
<path d="M4.19731 22.36L4.42394 21.9143L4.19731 22.36ZM1.28531 19.704L0.853677 19.9565L0.857281 19.9624L1.28531 19.704ZM0.293313 15.864V15.364H-0.206687V15.864H0.293313ZM5.41331 15.864H5.91331V15.364H5.41331V15.864ZM6.27731 17.72L5.94508 18.0938L5.95192 18.0996L6.27731 17.72ZM10.7573 17.816L10.4357 17.4331L10.4281 17.4397L10.7573 17.816ZM10.7253 14.328L10.3949 14.7034L10.4023 14.7097L10.7253 14.328ZM6.94931 13.624H6.44931V14.124H6.94931V13.624ZM6.94931 9.432V8.932H6.44931V9.432H6.94931ZM10.5013 8.792L10.8377 9.16197L10.8384 9.16124L10.5013 8.792ZM10.5013 5.72L10.1745 6.09841L10.1836 6.10631L10.1932 6.11375L10.5013 5.72ZM6.50131 5.752L6.81176 6.14415L6.82141 6.13611L6.50131 5.752ZM5.73331 7.352V7.852H6.23331V7.352H5.73331ZM0.613313 7.352H0.113313V7.852H0.613313V7.352ZM1.60531 3.8L1.18178 3.53425L1.18036 3.53653L1.60531 3.8ZM4.45331 1.24L4.68005 1.68565L4.68302 1.68411L4.45331 1.24ZM12.7093 1.176L12.4792 1.61988L12.7093 1.176ZM15.3973 3.576L15.8188 3.30698V3.30698L15.3973 3.576ZM15.4613 9.848L15.8638 10.1446L15.4613 9.848ZM13.4453 11.48L13.2712 11.0113L12.9453 11.1323V11.48H13.4453ZM13.4453 11.64H12.9453V11.9974L13.2835 12.1131L13.4453 11.64ZM15.6533 13.4L15.2509 13.697L15.2592 13.7076L15.6533 13.4ZM15.6853 19.96L15.2653 19.6887H15.2653L15.6853 19.96ZM12.8373 22.424L13.0578 22.8728L13.0609 22.8712L12.8373 22.424ZM8.61331 22.82C6.99161 22.82 5.60005 22.5123 4.42394 21.9143L3.97069 22.8057C5.31191 23.4877 6.86435 23.82 8.61331 23.82V22.82ZM4.42394 21.9143C3.24259 21.3136 2.34433 20.4906 1.71335 19.4456L0.857281 19.9624C1.59163 21.1787 2.63471 22.1264 3.97069 22.8057L4.42394 21.9143ZM1.71691 19.4516C1.1044 18.4044 0.793313 17.2129 0.793313 15.864H-0.206687C-0.206687 17.3737 0.143559 18.7423 0.853719 19.9564L1.71691 19.4516ZM0.293313 16.364H5.41331V15.364H0.293313V16.364ZM4.91331 15.864C4.91331 16.7419 5.26993 17.4935 5.94513 18.0937L6.6095 17.3463C6.1327 16.9225 5.91331 16.4367 5.91331 15.864H4.91331ZM5.95192 18.0996C6.65868 18.7054 7.56132 18.988 8.61331 18.988V17.988C7.74531 17.988 7.09061 17.7586 6.60271 17.3404L5.95192 18.0996ZM8.61331 18.988C9.60919 18.988 10.4558 18.7442 11.0866 18.1923L10.4281 17.4397C10.0348 17.7838 9.45211 17.988 8.61331 17.988V18.988ZM11.0789 18.1989C11.7185 17.6616 12.0573 16.9698 12.0573 16.152H11.0573C11.0573 16.6569 10.8628 17.0744 10.4357 17.4331L11.0789 18.1989ZM12.0573 16.152C12.0573 15.2629 11.7187 14.5136 11.0483 13.9463L10.4023 14.7097C10.8412 15.081 11.0573 15.5477 11.0573 16.152H12.0573ZM11.0556 13.9526C10.4013 13.3769 9.50983 13.124 8.45331 13.124V14.124C9.35946 14.124 9.98263 14.3405 10.395 14.7034L11.0556 13.9526ZM8.45331 13.124H6.94931V14.124H8.45331V13.124ZM7.44931 13.624V9.432H6.44931V13.624H7.44931ZM6.94931 9.932H8.45331V8.932H6.94931V9.932ZM8.45331 9.932C9.42251 9.932 10.2444 9.70131 10.8377 9.16197L10.165 8.42203C9.81959 8.73602 9.27611 8.932 8.45331 8.932V9.932ZM10.8384 9.16124C11.4323 8.61901 11.7373 7.93058 11.7373 7.128H10.7373C10.7373 7.64809 10.5516 8.06898 10.1642 8.42276L10.8384 9.16124ZM11.7373 7.128C11.7373 6.3992 11.4042 5.79171 10.8095 5.32625L10.1932 6.11375C10.5797 6.41629 10.7373 6.74747 10.7373 7.128H11.7373ZM10.8281 5.34159C10.2409 4.83446 9.45995 4.612 8.54931 4.612V5.612C9.30268 5.612 9.82304 5.79487 10.1745 6.09841L10.8281 5.34159ZM8.54931 4.612C7.61248 4.612 6.80581 4.8474 6.18122 5.36789L6.82141 6.13611C7.22081 5.80327 7.77948 5.612 8.54931 5.612V4.612ZM6.19096 5.35998C5.5574 5.86155 5.23331 6.54015 5.23331 7.352H6.23331C6.23331 6.84118 6.42123 6.45312 6.81166 6.14402L6.19096 5.35998ZM5.73331 6.852H0.613313V7.852H5.73331V6.852ZM1.11331 7.352C1.11331 6.14016 1.41985 5.048 2.03026 4.06347L1.18036 3.53653C0.468105 4.68533 0.113313 5.96118 0.113313 7.352H1.11331ZM2.02885 4.06574C2.66038 3.05923 3.53949 2.26592 4.68004 1.68564L4.22658 0.794361C2.93513 1.45142 1.91558 2.36477 1.18178 3.53425L2.02885 4.06574ZM4.68302 1.68411C5.83946 1.08595 7.17731 0.779999 8.70931 0.779999V-0.220001C7.04132 -0.220001 5.54183 0.114046 4.2236 0.795891L4.68302 1.68411ZM8.70931 0.779999C10.1573 0.779999 11.4093 1.06513 12.4792 1.61988L12.9395 0.732121C11.7053 0.0922003 10.2907 -0.220001 8.70931 -0.220001V0.779999ZM12.4792 1.61988C13.5604 2.18054 14.3874 2.92308 14.9759 3.84502L15.8188 3.30698C15.1272 2.22359 14.1622 1.36613 12.9395 0.732121L12.4792 1.61988ZM14.9759 3.84502C15.5634 4.76546 15.8573 5.78108 15.8573 6.904H16.8573C16.8573 5.59492 16.5113 4.39187 15.8188 3.30698L14.9759 3.84502ZM15.8573 6.904C15.8573 7.96527 15.5839 8.83871 15.0588 9.5514L15.8638 10.1446C16.5334 9.23595 16.8573 8.14673 16.8573 6.904H15.8573ZM15.0588 9.5514C14.504 10.3043 13.9052 10.7758 13.2712 11.0113L13.6194 11.9487C14.4787 11.6295 15.224 11.013 15.8638 10.1446L15.0588 9.5514ZM12.9453 11.48V11.64H13.9453V11.48H12.9453ZM13.2835 12.1131C13.9728 12.3489 14.6321 12.8584 15.251 13.6969L16.0556 13.1031C15.3519 12.1496 14.5391 11.4858 13.6072 11.1669L13.2835 12.1131ZM15.2592 13.7076C15.863 14.4813 16.1773 15.4456 16.1773 16.632H17.1773C17.1773 15.2584 16.809 14.0681 16.0475 13.0924L15.2592 13.7076ZM16.1773 16.632C16.1773 17.7284 15.8755 18.7438 15.2653 19.6887L16.1053 20.2313C16.8178 19.1282 17.1773 17.925 17.1773 16.632H16.1773ZM15.2653 19.6887C14.6588 20.6279 13.782 21.3926 12.6137 21.9768L13.0609 22.8712C14.3673 22.218 15.3892 21.3401 16.1053 20.2313L15.2653 19.6887ZM12.6169 21.9752C11.4808 22.5333 10.1506 22.82 8.61331 22.82V23.82C10.276 23.82 11.7618 23.5094 13.0578 22.8728L12.6169 21.9752Z" fill="#FF904C"/>
</svg>
