<svg width="18" height="22" viewBox="0 0 18 22" fill="none" xmlns="http://www.w3.org/2000/svg">
<mask id="mask0_97_862" style="mask-type:luminance" maskUnits="userSpaceOnUse" x="0" y="0" width="18" height="22">
<path d="M9 21C9 21 17 15 17 8.5C17 4.358 13.4185 1 9 1C4.5815 1 1 4.358 1 8.5C1 15 9 21 9 21Z" fill="white" stroke="white" strokeLinejoin="round"/>
<path d="M7.5 6V14" stroke="black" strokeLinecap="round" strokeLinejoin="round"/>
<path d="M7.5 6H10.5C11.0304 6 11.5391 6.21071 11.9142 6.58579C12.2893 6.96086 12.5 7.46957 12.5 8C12.5 8.53043 12.2893 9.03914 11.9142 9.41421C11.5391 9.78929 11.0304 10 10.5 10H7.5V6Z" fill="black" stroke="black" strokeLinejoin="round"/>
</mask>
<g mask="url(#mask0_97_862)">
<path d="M-3 -1H21V23H-3V-1Z" fill="#FF904C"/>
</g>
</svg>
