<svg width="18" height="16" viewBox="0 0 18 16" fill="none" xmlns="http://www.w3.org/2000/svg">
<path d="M5.95809 0.500024C6.94143 0.358357 7.98309 1.43336 8.28309 2.91669C8.58309 4.39169 8.04143 5.70836 7.05809 5.85836C6.08309 6.00836 5.03309 4.93336 4.72476 3.45002C4.41643 1.97502 4.97476 0.658357 5.95809 0.500024ZM11.9164 0.500024C12.9081 0.658357 13.4581 1.97502 13.1664 3.45002C12.8498 4.93336 11.8081 6.00836 10.8248 5.85836C9.83309 5.70836 9.29143 4.39169 9.59976 2.91669C9.89976 1.43336 10.9414 0.358357 11.9164 0.500024ZM1.49976 4.33336C2.44976 3.92502 3.74143 4.66669 4.41643 5.95836C5.04976 7.27502 4.83309 8.65836 3.89143 9.06669C2.94976 9.47502 1.66643 8.74169 1.00809 7.43336C0.349759 6.12502 0.583093 4.73336 1.49976 4.33336ZM16.4998 4.33336C17.4164 4.73336 17.6498 6.12502 16.9914 7.43336C16.3331 8.74169 15.0498 9.47502 14.1081 9.06669C13.1664 8.65836 12.9498 7.27502 13.5831 5.95836C14.2581 4.66669 15.5498 3.92502 16.4998 4.33336ZM15.1081 13.3167C15.1414 14.1 14.5414 14.9667 13.8248 15.2917C12.3331 15.975 10.5664 14.5584 8.90809 14.5584C7.24976 14.5584 5.46643 16.0334 3.99976 15.2917C3.16643 14.8834 2.59143 13.8 2.69976 12.9C2.84976 11.6584 4.34143 10.9917 5.22476 10.0834C6.39976 8.90836 7.23309 6.70002 8.90809 6.70002C10.5748 6.70002 11.4581 8.87502 12.5831 10.0834C13.5081 11.1 15.0498 11.9584 15.1081 13.3167Z" fill="#FF904C"/>
</svg>
