<svg width="182" height="136" viewBox="0 0 182 136" fill="none" xmlns="http://www.w3.org/2000/svg">
<path fillRule="evenodd" clipRule="evenodd" d="M76.6448 53.4531C74.5689 53.5857 72.4759 53.5316 70.3982 53.4656C70.1935 53.459 69.704 53.3638 69.5792 53.4861C69.4359 53.6269 69.4663 54.4031 69.4425 54.5953C69.2632 56.0513 69.0835 57.5078 68.9042 58.9638C68.8216 59.6326 68.7392 60.3013 68.6568 60.9699C68.6333 61.1599 68.4005 61.982 68.5116 62.1468C68.7138 62.4468 70.1612 62.5154 70.5427 62.5888L75.0855 63.4638C75.5132 63.5463 76.605 63.5656 76.8034 63.9035C76.9292 64.1179 76.8525 64.6984 76.8673 64.9418L76.9907 66.949C77.1527 69.5781 77.3146 72.207 77.4761 74.8359C80.6913 74.5775 83.9064 74.3191 87.121 74.0605C87.9034 73.9976 88.6857 73.9349 89.4679 73.872C89.6542 73.857 90.0445 73.8963 90.1966 73.7933C90.5286 73.5685 90.8116 72.6066 90.9909 72.2609C91.4474 71.3799 91.904 70.4988 92.3607 69.6176C92.8007 68.7685 93.2407 67.9195 93.6808 67.0703C93.7935 66.8531 94.0745 66.4904 94.0675 66.2529C94.0597 65.9849 93.6603 65.5054 93.5355 65.2767C93.1699 64.6058 92.8042 63.9349 92.4384 63.264C90.6279 59.9422 88.8175 56.6203 87.0068 53.2986C86.915 53.1302 86.7101 52.5179 86.5306 52.425C86.182 52.2445 84.9622 52.6076 84.5864 52.6506C81.9458 52.9519 79.2982 53.284 76.6448 53.4531Z" fill="#FF904C"/>
<path fillRule="evenodd" clipRule="evenodd" d="M46.0208 47.7467C46.6626 48.5082 47.3044 49.2698 47.9464 50.0313C49.6482 47.9307 51.3501 45.8301 53.0521 43.7295C52.1987 43.3483 51.3456 42.967 50.4925 42.5856C49.7353 42.2473 49.8319 42.4082 49.3528 43.0789C48.2423 44.635 47.1314 46.1909 46.0208 47.7467Z" fill="#252525"/>
<path fillRule="evenodd" clipRule="evenodd" d="M78.8413 97.2967C78.8386 98.4036 78.836 99.5104 78.8333 100.617C82.2189 100.45 85.6042 100.284 88.9896 100.117C88.8359 99.6528 88.6819 99.1883 88.5282 98.7243C88.4081 98.3614 88.2562 97.2651 87.9642 97.0217C87.645 96.7559 86.2421 97.0301 85.8136 97.0456C83.4896 97.1293 81.1653 97.2129 78.8413 97.2967Z" fill="#252525"/>
<path fillRule="evenodd" clipRule="evenodd" d="M70.7763 13.5078C66.8214 16.0063 62.8665 18.5049 58.9114 21.0035C59.7847 22.0248 60.6577 23.0459 61.5308 24.0672C61.74 24.3119 61.7771 24.4668 62.0163 24.443C62.2946 24.4152 62.763 23.9783 62.9948 23.8338C65.7985 22.0887 68.6021 20.3438 71.4056 18.5988C72.2538 18.0707 73.1021 17.5426 73.9505 17.0147C72.8925 15.8457 71.8343 14.6768 70.7763 13.5078Z" fill="#252525"/>
<path fillRule="evenodd" clipRule="evenodd" d="M162.666 52.5594C162.523 51.3978 161.938 50.2172 161.509 49.1416C161.004 47.874 160.473 46.6172 159.928 45.3664C159.583 44.5744 159.458 44.7691 158.557 44.8045C157.503 44.8455 156.449 44.8869 155.396 44.9281C156.207 47.8732 157.018 50.8184 157.829 53.7635C157.97 54.2732 158.197 56.1846 158.639 56.4426C158.792 56.532 159.322 56.417 159.495 56.4105C159.992 56.3918 160.489 56.3732 160.986 56.3547C161.662 56.3293 162.337 56.3041 163.013 56.2787C162.919 55.0377 162.818 53.7949 162.666 52.5594Z" fill="#252525"/>
<path fillRule="evenodd" clipRule="evenodd" d="M95.7544 127.131C93.9417 126.673 91.9696 127.107 90.1431 127.12C89.0671 127.128 87.9935 127.056 86.9179 127.111C86.5575 127.13 84.9095 127.082 84.8534 127.299C84.8103 127.465 85.138 127.884 85.265 127.953C85.6208 128.147 85.871 127.898 86.2302 127.806C87.2032 127.554 88.3411 127.709 89.3411 127.662C90.3872 127.612 91.4331 127.55 92.4792 127.502C93.5214 127.454 94.8511 127.67 95.7544 127.131ZM6.94363 33.1713C6.80452 32.8525 6.74738 32.3469 6.42784 32.1473C6.13189 31.9623 5.51167 32.0975 5.16964 32.0926C4.44232 32.0828 2.86318 32.1109 2.38802 32.7731C1.81034 33.5779 3.50978 34.1518 4.07656 34.1365C5.06132 34.1098 5.95728 33.3533 6.94363 33.1713ZM25.048 23.0684C25.123 22.8645 24.8599 22.7297 24.6698 22.6649C24.1862 22.4996 23.8681 22.7744 23.4425 22.9813C22.3679 23.5033 21.1995 23.8484 20.0691 24.2256C19.0849 24.5539 18.172 25.0141 17.2068 25.3838C16.5226 25.6459 15.0784 25.5949 14.6845 26.2563C13.9064 27.5627 15.9444 26.5828 16.3034 26.4561C17.3339 26.0928 18.4308 25.8688 19.4407 25.4535C20.413 25.0539 21.4042 24.6475 22.3663 24.2147C22.8052 24.0172 23.2417 23.8496 23.6892 23.6772C24.1079 23.5158 24.6026 23.1109 25.048 23.0684ZM54.4564 45.7115C54.1995 45.5541 53.1472 44.6754 52.7937 44.7912C52.5175 44.882 52.2085 45.8914 52.0364 46.1565C51.1745 47.4836 50.245 48.7559 49.321 50.0395C49.731 50.2602 50.1411 50.4805 50.5513 50.701C51.3876 48.7193 52.9999 47.2363 54.4564 45.7115ZM70.4136 52.7943C71.7335 52.7975 73.0411 52.632 74.3595 52.6504C75.8368 52.6709 77.2884 52.7109 78.7642 52.5904C80.2165 52.4715 81.6632 52.4656 83.1155 52.3773C83.5722 52.3496 86.1159 52.1555 84.6259 51.4281C84.1245 51.1834 83.5216 51.4883 82.9771 51.5982C82.3462 51.7256 81.7095 51.7732 81.0718 51.85C80.464 51.9232 79.8187 52.1254 79.2056 52.1105C78.5624 52.0947 78.0796 51.9799 77.4331 52.0729C76.0931 52.2658 74.7587 52.1578 73.4193 52.0336C72.4956 51.9479 70.4681 51.4285 70.4136 52.7943ZM106.333 127.952C107.183 127.267 108.526 127.563 109.536 127.345C110.65 127.104 109.773 125.922 109.345 125.294C108.9 124.638 108.229 123.327 107.48 124.298C106.697 125.312 106.605 126.741 106.333 127.952ZM79.5919 98.184C79.5636 98.7998 79.2587 99.4334 79.8991 99.6449C80.5138 99.8476 81.5689 99.5395 82.2058 99.4846C83.036 99.4127 83.8528 99.2758 84.6806 99.1902C85.0499 99.1521 85.4212 99.1238 85.7927 99.1578C86.0485 99.1811 86.6651 99.459 86.8939 99.3439C87.1747 99.2027 87.3109 98.4408 87.0814 98.1471C86.8327 97.8287 85.3306 98.1443 84.7931 98.1852C83.0421 98.3178 81.3355 98.1057 79.5919 98.184ZM79.4847 96.2084C80.2909 95.8764 81.2486 96.0318 82.0974 96.0272C83.0962 96.0221 84.0833 96.0766 85.0798 96.1414C85.5206 96.1701 86.8066 96.4969 87.1765 96.2146C87.371 96.0664 87.4409 94.7953 87.2761 94.6006C87.0069 94.2822 86.1624 94.6652 85.8165 94.717C84.89 94.8545 83.9444 94.851 83.0097 94.8424C82.1347 94.8346 81.2571 94.7957 80.3827 94.7938C79.3466 94.7912 79.4868 95.3205 79.4847 96.2084ZM51.7534 44.0963C51.4241 43.9053 50.3431 43.0279 49.9394 43.1611C49.5958 43.2744 49.231 44.3217 49.0259 44.6506C48.6349 45.2775 48.222 45.8922 47.8169 46.5102C47.5579 46.9053 46.8675 47.6191 46.9855 48.1531C47.0482 48.4375 47.6232 48.9287 47.9136 48.8424C48.2132 48.7535 48.7067 47.6389 48.873 47.4191C49.773 46.2303 50.9038 45.3358 51.7534 44.0963ZM156.574 45.3836C157.727 47.6447 157.876 50.2014 158.501 52.6281C158.646 53.193 158.87 53.7504 158.994 54.3186C159.063 54.6352 158.936 55.1775 159.113 55.4469C159.557 56.1215 161.609 55.9072 162.052 55.3135C162.312 54.9647 162.11 54.6029 161.999 54.2408C161.85 53.7518 161.921 53.3258 161.835 52.8377C161.661 51.8594 160.78 50.8721 160.361 49.9691C159.905 48.9826 159.695 47.7959 159.04 46.9149C158.602 46.3254 157.374 45.1088 156.574 45.3836ZM81.3528 133.587C82.8966 133.384 85.3245 132.925 85.2437 130.85C85.1632 128.788 82.4599 128.422 80.955 128.241C80.514 128.188 80.4659 128.163 80.0183 128.43C79.7105 128.614 79.404 128.81 79.1171 129.024C78.5583 129.442 77.9253 130.01 77.8062 130.738C77.5034 132.587 79.9984 133.423 81.3528 133.587ZM72.5298 16.4506C73.2302 16.5248 72.2985 15.8441 72.122 15.7617C71.586 15.5117 70.9907 15.557 70.4218 15.6522C69.0452 15.8822 67.8269 17.0379 66.6505 17.7525C65.405 18.509 64.1755 19.3645 62.8767 20.0246C62.2829 20.3268 61.7919 20.583 61.2985 21.0336C61.047 21.2633 60.9599 21.4227 60.6218 21.4225C60.4343 21.4225 60.0163 20.9844 59.8167 21.2379C59.2597 21.9453 62.0665 22.1742 62.3595 22.1264C63.823 21.8869 65.0927 21.3316 66.3484 20.5785C67.6306 19.81 68.9921 19.1859 70.2808 18.4377C70.8376 18.1141 71.3146 17.6852 71.8226 17.3008C71.8952 17.2457 72.0269 17.0602 72.1003 16.9897C72.2185 17.0244 72.3173 16.9938 72.3968 16.8979C72.4382 16.7479 72.4823 16.5986 72.5298 16.4506ZM100.841 127.151C99.4179 127.656 97.0909 128.049 96.423 129.719C95.6665 131.611 99.0669 132.959 100.401 133.062C101.803 133.17 104.295 132.602 104.49 130.859C104.602 129.856 103.807 129.215 103.063 128.715C102.304 128.203 101.219 128.093 100.841 127.151ZM9.75759 21.8002C8.75138 21.9158 8.06749 22.015 7.26595 22.668C6.60089 23.21 6.05294 23.7574 5.78195 24.5936C5.15538 26.5258 6.70394 28.1848 8.69316 27.9598C8.91245 27.935 9.12663 27.8539 9.34927 27.8762C9.55378 27.8969 9.69675 28.0436 9.8696 28.0731C10.2771 28.1422 10.356 28.0707 10.6903 27.7537C11.3722 27.1066 12.0568 26.3959 12.4345 25.5229C13.3441 23.4203 11.9761 21.8379 9.75759 21.8002ZM32.6343 17.7732C32.7319 15.5973 29.4194 15.2397 27.8921 15.4051C26.1577 15.5932 23.3126 17.3539 23.973 19.5143C24.5544 21.4156 27.8341 21.2707 29.2515 20.8842C29.5548 20.8016 30.0261 20.6221 30.3245 20.6828C30.7728 20.7736 30.7944 21.1426 31.2169 20.8086C31.4823 20.5986 31.7222 19.9871 31.9095 19.6859C32.2831 19.0859 32.4761 18.4602 32.6343 17.7732ZM79.1927 107.136C79.147 107.602 78.9691 108.201 79.4706 108.423C79.7806 108.56 80.6405 108.41 80.9519 108.421C82.2515 108.467 83.5853 108.364 84.8769 108.467C85.2587 108.498 86.4001 108.885 86.74 108.625C87.0722 108.371 86.8128 107.577 86.7907 107.221C86.7003 105.77 86.8948 104.359 86.9573 102.916C86.9739 102.528 87.1341 101.586 86.8368 101.299C86.4749 100.949 85.672 101.152 85.2407 101.195C83.8954 101.331 82.5112 101.531 81.1587 101.534C80.7876 101.535 79.9655 101.271 79.6437 101.41C79.1489 101.623 79.2653 102.368 79.2382 102.843C79.1554 104.276 79.1005 105.702 79.1927 107.136ZM48.945 42.1637C47.181 40.8568 45.3525 39.6178 43.5886 38.3471C42.9605 37.8947 42.4935 37.2488 41.905 36.8074C41.5359 36.5301 41.4234 36.4096 40.9187 36.6772C40.3357 36.9865 39.7937 37.4723 39.2558 37.8561C38.804 38.1783 38.3501 38.4979 37.8978 38.8188C37.4786 39.116 37.3382 39.1836 37.6353 39.6773C38.1579 40.5463 39.2433 41.3303 39.9528 42.0449C41.704 43.8082 43.4144 45.6326 45.3819 47.1559C46.0581 45.1828 47.4573 43.5783 48.945 42.1637ZM68.7194 11.7065C65.6571 10.4965 65.4249 6.39968 64.3538 3.78827C64.0222 5.57598 64.9021 8.48139 63.4165 9.88534C62.503 10.7486 61.9737 9.53026 61.4833 8.8671C60.7362 7.85731 59.9345 6.8919 59.2214 5.85641C59.4403 7.10561 60.0677 8.50762 59.9505 9.77794C59.8583 10.7752 59.2208 12.1413 58.2931 11.0104C57.656 10.2337 56.8403 9.50719 56.0974 8.81833C55.2042 7.99022 54.1851 7.45524 53.2142 6.74895C53.5901 8.61712 54.3068 10.2754 55.3634 11.8565C55.9054 12.6678 56.4985 13.4469 57.0103 14.2781C57.4284 14.9576 57.6257 15.8027 58.1798 16.3801C58.6974 16.9193 59.4585 17.3498 60.0782 17.7641C60.9609 18.3539 61.1724 18.1861 61.9839 17.6256C63.5548 16.5408 65.2605 15.6723 66.8415 14.6012C66.5489 14.2143 66.0816 13.832 66.0968 13.3053C66.1091 12.8789 66.4355 12.4908 66.8722 12.5418C67.2146 12.5818 67.3728 12.9404 67.7536 12.8193C68.0757 12.717 68.5157 11.9482 68.7194 11.7065ZM174.167 44.3324C172.747 44.4998 171.423 45.0055 169.968 44.9133C169.38 44.876 168.94 44.9846 168.682 44.3938C168.475 43.9219 168.686 43.2047 168.038 43.0762C167.557 42.9811 166.962 43.4275 166.607 43.6801C165.968 44.1342 165.403 44.5371 164.68 44.8578C163.398 45.4264 162.097 45.9207 160.696 45.9828C161.035 47.0119 161.392 48.0426 161.862 49.0207C162.311 49.9584 162.754 50.7561 162.888 51.8004C162.945 52.2475 162.945 52.7346 163.384 52.9311C163.814 53.124 164.581 52.965 165.047 52.9732C166.114 52.9924 167.182 53.0174 168.249 53.0199C169.062 53.0215 169.871 53.2152 170.663 53.2041C171.647 53.1898 172.761 52.7619 173.721 52.5588C175.54 52.174 178.086 51.9354 179.535 50.6945C178.193 50.4834 176.827 50.6272 175.508 50.9162C174.905 51.0488 173.521 51.7383 173.116 51.0479C172.634 50.2254 173.577 49.0898 174.243 48.7078C174.994 48.2762 176.114 48.3229 176.643 47.5453C175.644 47.6297 174.591 47.6666 173.625 47.9606C172.884 48.1857 171.929 48.8274 171.636 47.7162C171.161 45.9162 172.929 45.0625 174.167 44.3324ZM68.2608 59.7432C68.5116 57.3604 68.9718 54.9523 69.0126 52.5533C69.03 51.517 67.8589 51.7023 67.0394 51.4078C65.848 50.9799 64.6802 50.4732 63.5103 49.9904C62.3442 49.509 61.1718 49.0449 60.0017 48.5734C58.9394 48.1457 57.9198 47.4986 56.8487 47.1184C56.2657 46.9113 56.2204 47.1135 55.8821 47.6484C55.553 48.1689 55.2073 48.6783 54.8495 49.1793C54.098 50.2318 53.2933 51.2451 52.4708 52.2426C54.9454 53.7326 57.5286 55.1094 60.0821 56.4596C62.688 57.8377 65.5226 58.6719 68.2608 59.7432ZM121.124 50.7039C122.433 50.707 123.707 50.5187 125.011 50.4787C126.299 50.4393 127.545 50.4957 128.823 50.5293C130.05 50.5613 131.253 50.8102 132.477 50.8682C132.774 50.8822 133.084 50.8811 133.38 50.9141C133.677 50.9473 133.854 51.0578 134.13 51.1047C134.809 51.2199 135.47 51.0568 136.155 51.0936C138.68 51.2283 141.168 51.7471 143.694 51.8785C146.291 52.0139 148.825 52.2154 151.41 52.5268C152.776 52.6914 154.145 52.7881 155.517 52.8844C155.798 52.9041 156.401 53.0812 156.555 52.7602C156.742 52.3703 156.107 51.0381 155.99 50.6254C155.838 50.0889 155.713 49.5404 155.509 49.0201C155.39 48.7162 155.138 47.7236 154.895 47.5307C154.557 47.2617 154.052 47.5201 153.658 47.5772C152.859 47.6926 152.046 47.7615 151.242 47.8406C150.052 47.9584 148.861 48.2395 147.672 48.2752C146.33 48.3152 144.994 48.2578 143.654 48.2078C140.968 48.1072 138.218 48.1592 135.547 47.885C132.46 47.5678 129.359 47.4391 126.264 47.2063C125.531 47.151 124.795 47.1371 124.061 47.093C123.536 47.0615 122.464 46.693 121.973 46.8639C121.475 47.0377 121.569 47.6277 121.513 48.0863C121.405 48.9613 121.266 49.8338 121.124 50.7039ZM88.98 74.9873C87.1173 75.2736 85.2898 75.3857 83.4067 75.4398C82.5761 75.4637 81.7509 75.5035 80.9235 75.5867C80.2319 75.6562 79.8441 75.6865 79.8187 76.4437C79.706 79.7654 79.5255 83.0512 79.4234 86.374C79.3655 88.2502 79.4321 90.1285 79.4255 92.0053C79.423 92.7176 79.2771 93.2311 80.0599 93.3143C81.011 93.4152 82.0089 93.2826 82.9657 93.2916C83.8466 93.3002 84.7276 93.3217 85.6083 93.341C86.1739 93.3531 87.2224 93.6346 87.4124 92.9498C87.4728 92.7307 87.3638 92.3461 87.3694 92.1039C87.38 91.6531 87.4357 91.1981 87.4628 90.7475C87.5251 89.7139 87.5704 88.6793 87.6333 87.6457C87.8902 83.4109 88.5806 79.2109 88.98 74.9873ZM67.6513 22.2674C68.88 23.21 70.2775 23.8586 71.5909 24.683C72.2206 25.0783 72.8284 25.5024 73.4454 25.9166C74.08 26.343 74.8173 26.6014 75.4171 27.0748C76.5775 27.9916 78.0134 28.5756 79.2882 29.3709C80.5837 30.1793 81.8749 30.9889 83.1997 31.7482C83.786 32.0844 84.4271 32.2863 85.0284 32.5895C85.7489 32.9529 86.4028 33.4291 87.1335 33.7764C88.6974 34.5203 90.2591 35.2649 91.8163 36.0231C94.8734 37.5111 98.0068 38.8861 101.127 40.2346C101.793 40.5219 102.492 40.6481 103.193 40.8178C103.524 40.8979 103.943 40.9395 104.242 41.0986C104.334 41.1482 104.433 41.1553 104.507 41.2385C104.647 41.3982 104.528 41.6219 104.615 41.7406C105.1 42.4059 106.45 40.5365 106.764 40.0836C107.249 39.3836 107.052 39.2703 106.303 38.9799C105.549 38.6869 104.787 38.4107 104.04 38.0979C102.664 37.5213 101.257 36.8689 99.9431 36.1627C98.5763 35.4279 97.1528 34.8213 95.8003 34.0549C94.2833 33.1955 92.7782 32.3186 91.2443 31.4895C88.6558 30.0908 86.278 28.3274 83.7634 26.8092C82.3747 25.9711 81.0696 24.9736 79.7263 24.0508C78.4151 23.1502 77.1726 22.1445 75.8337 21.3031C75.0972 20.8402 74.3314 20.4551 73.6431 19.9205C73.1286 19.5211 72.6153 19.1111 71.9706 19.4465C71.2737 19.8088 70.6161 20.418 69.9394 20.8387C69.1759 21.3137 68.4138 21.791 67.6513 22.2674ZM124.69 37.8559C124.291 37.6471 122.827 37.09 123.514 36.4074C124.003 35.9217 125.16 36.5672 125.634 36.7277C125.624 36.0563 125.625 35.593 125.409 34.9527C125.192 34.3094 125.252 33.8229 125.782 33.3352C126.024 33.1121 126.901 32.9197 127.003 32.6272C127.162 32.1725 126.374 32.3168 126.105 32.2531C124.685 31.9172 124.77 30.4281 124.735 29.2881C124.694 27.9477 124.38 26.6588 123.344 25.7877C122.876 25.3941 122.707 25.3936 122.131 25.652C121.918 25.7471 121.727 25.9004 121.493 25.9426C121.161 26.0022 120.939 25.7861 120.644 25.8008C120.187 25.8234 119.721 26.5795 119.276 26.8211C118.7 27.134 118.132 27.0406 117.563 27.2645C117.057 27.4635 116.567 28.0037 116.095 28.291C115.451 28.6822 115.598 29.066 115.639 29.8348C115.673 30.476 115.653 30.8967 115.022 31.1346C114.819 31.2113 114.461 31.1768 114.288 31.3002C114.033 31.4824 114.171 31.6193 114.089 31.9242C113.88 32.6951 113.438 32.2246 112.873 32.1217C112.186 31.9961 111.429 32.4813 111.788 33.2191C111.916 33.4832 112.192 33.7236 112.468 33.8059C112.795 33.9029 113.202 33.6356 113.503 33.7563C114.272 34.0641 113.658 34.7934 113.694 35.2902C114.16 35.0373 114.319 34.3121 114.801 35.116C115.149 35.6969 115.01 36.5795 114.924 37.2137C114.723 38.6813 114.273 40.4789 113.319 41.6561C113.181 41.8256 112.976 42.1441 112.718 42.1039C112.503 42.0707 112.477 41.7918 112.291 41.7205C111.892 41.567 111.282 41.7943 111.129 42.1635C110.871 42.7873 110.898 43.7027 110.878 44.3629C110.854 45.1231 110.765 45.9828 110.949 46.7283C111.264 48.0016 112.449 48.4449 113.601 48.7262C114.243 48.8826 114.947 49.0654 115.597 48.8453C116.306 48.6053 116.793 47.9611 117.293 47.4412C117.669 47.0504 118.398 46.6057 118.447 46.0402C118.47 45.7758 118.282 45.4109 118.239 45.14C118.171 44.71 118.152 44.2754 118.163 43.84C118.184 43.0408 118.408 42.2281 118.34 41.4287C118.269 40.6109 117.661 40.5522 117.33 39.9223C117.133 39.5465 117.087 38.9613 117.567 38.8334C117.845 38.7592 118.367 38.9707 118.669 38.9922C119.13 39.025 119.597 39.0322 120.059 39.0367C120.91 39.0455 121.551 39.0018 122.322 38.6311C123.115 38.2498 123.824 38.0119 124.69 37.8559ZM104.951 127.446C104.983 126.749 105.08 126.052 105.296 125.386C105.479 124.821 105.873 124.325 105.94 123.741C106.078 122.521 105.673 121.376 104.498 120.936C103.358 120.509 102.123 120.516 100.933 120.596C100.242 120.642 99.6562 120.406 98.978 120.437C98.2642 120.47 97.6343 120.372 96.9253 120.297C95.6087 120.157 94.4866 119.577 93.2079 119.332C92.5821 119.212 92.3657 119.479 91.9829 119.92C91.561 120.404 91.0861 120.812 90.5515 121.169C89.73 121.716 88.2601 122.722 88.1818 121.025C88.1159 119.6 89.5431 118.544 90.4243 117.621C89.5316 117.242 89.6079 115.833 88.5706 116.4C88.1206 116.646 87.7651 117.01 87.3493 117.305C86.9993 117.554 86.1962 118.245 85.7359 118.191C85.0862 118.115 85.0167 117.192 85.1142 116.68C85.2909 115.749 86.2634 115.214 86.9538 114.667C87.3708 114.337 87.9948 114.077 88.3493 113.689C88.7261 113.277 88.6423 112.815 88.6296 112.297C88.6239 112.061 88.8007 111.173 88.7046 110.97C88.5567 110.656 88.0446 110.739 87.6796 110.707C87.0023 110.646 86.33 110.527 85.6552 110.463C85.1263 110.413 84.6181 110.533 84.0888 110.552C82.7519 110.601 81.3993 110.531 80.0607 110.528C79.8177 110.527 78.7999 110.353 78.6308 110.563C78.4847 110.744 78.6237 111.584 78.623 111.801C78.6185 113.148 78.623 114.494 78.6632 115.84C78.7423 118.498 78.6534 121.226 78.1077 123.838C78.0089 124.312 77.6978 124.836 78.1775 125.069C78.5464 125.248 79.5312 124.97 79.9335 124.943C81.2382 124.858 82.5571 124.942 83.8548 124.847C86.114 124.682 88.4505 124.834 90.7548 124.887C93.8204 124.959 96.8687 125.29 99.9333 125.369C101.265 125.403 102.62 125.16 103.935 125.2C104.452 125.216 104.598 125.347 104.627 125.9C104.662 126.559 104.376 126.912 104.951 127.446ZM40.6253 33.4742C39.4478 31.4852 38.3378 29.4566 37.1614 27.467C36.6302 26.5686 36.0335 25.7145 35.4403 24.8564C35.1364 24.4168 34.8005 23.9727 34.5683 23.4885C34.3554 23.0453 34.2919 22.5356 34.0413 22.1102C33.5673 23.1582 32.5497 23.7332 31.4847 24.1084C30.6571 24.3998 29.8497 24.8174 28.9864 24.9973C26.7282 25.4684 24.4944 26.4832 22.2786 27.219C17.5734 28.7811 12.5439 29.6389 8.01386 31.6686C9.55958 33.1986 9.07933 36.4611 11.6585 36.9545C12.6847 37.151 13.7564 36.8352 14.7384 36.5647C15.9784 36.2229 17.2194 35.8838 18.4609 35.5459C19.8077 35.1789 21.1681 34.894 22.5259 34.5736C23.2079 34.4127 23.8943 34.301 24.5776 34.1561C25.1468 34.0352 25.1536 33.917 25.4519 33.3807C25.9564 32.4742 26.8919 31.5471 27.6833 32.743C28.0056 33.2301 27.9372 33.8414 28.2196 34.3242C28.4609 34.7365 28.9767 34.9504 29.3394 35.2289C29.5909 34.5186 29.8915 33.5563 30.4476 33.0106C31.0542 32.415 31.6569 32.8941 31.8753 33.594C32.1376 34.4348 31.7509 35.4582 31.5818 36.2856C31.4991 36.69 31.3423 37.1547 31.4372 37.5695C31.5634 38.1207 32.0437 38.6889 32.3298 39.1672C35.0042 37.1738 37.7362 35.1383 40.6253 33.4742ZM92.9081 66.9629C92.1249 65.9014 91.2972 64.9607 90.7095 63.7715C90.0812 62.5006 89.573 61.1316 88.9028 59.893C88.2374 58.6629 87.6249 57.4096 87.0175 56.1467C86.5935 55.2652 86.1109 53.149 84.8966 53.202C84.2902 53.2285 83.6714 53.4471 83.0612 53.5068C82.346 53.5773 81.6276 53.5732 80.9134 53.6605C79.3464 53.8521 77.821 54.1949 76.2396 54.2877C74.8806 54.3676 73.504 54.4084 72.1433 54.3492C71.7726 54.3332 70.8073 54.0443 70.4636 54.2098C70.0628 54.4027 70.1968 55.1553 70.163 55.5404C70.0351 56.9891 69.8394 58.4391 69.6193 59.876C69.5816 60.1211 69.2028 61.3457 69.3724 61.5527C69.6337 61.8721 70.7569 61.6586 71.1234 61.6869C72.5685 61.798 73.9884 62.1281 75.428 62.2879C76.1581 62.3688 76.8892 62.3875 77.6234 62.39C78.3366 62.3926 79.3773 62.1957 80.0538 62.44C80.489 62.5973 80.7359 62.967 80.5954 63.4379C80.4405 63.957 79.937 64.073 79.47 64.1703C79.1276 64.2414 78.1345 64.2018 77.9189 64.5166C77.6855 64.8574 78.0943 65.4996 78.2095 65.8229C78.4304 66.4424 78.305 66.7084 78.2888 67.3145C78.2712 67.9521 78.6405 68.5135 78.5913 69.1584C78.5433 69.7889 78.5171 70.2922 78.5784 70.935C78.6325 71.4996 78.5948 72.1182 78.6741 72.6666C78.8575 73.9361 81.6025 73.1682 82.4542 73.1492C84.215 73.1098 85.9827 73.3945 87.7368 73.3103C88.2528 73.2854 89.4493 73.3791 89.8132 72.9408C90.1821 72.4971 90.2407 71.4844 90.4786 70.9352C91.0997 69.5 92.0257 68.242 92.9081 66.9629ZM108.586 38.7078C108.458 40.1807 108.386 41.3152 107.504 42.5547C106.562 43.8781 105.479 43.7596 103.992 43.9051C102.658 44.0357 101.611 44.4768 100.539 45.2658C99.278 46.1938 97.9183 46.9643 96.5747 47.7629C94.0189 49.2824 90.9706 49.7025 88.0683 50.1541C87.3386 50.2678 85.9915 50.5943 86.8501 51.4592C87.7732 52.3891 88.2901 53.7611 88.9105 54.9244C90.3323 57.5918 91.4224 60.4568 93.0443 63.0113C93.6993 64.0434 94.4833 65.2887 95.489 66.0174C96.4437 66.7088 98.3601 65.4246 99.3319 64.9998C100.595 64.4477 101.92 64.0287 103.11 63.3475C104.22 62.7119 105.35 62.1637 106.517 61.6406C107.662 61.1268 108.772 60.6152 109.971 60.2402C111.383 59.799 112.875 59.6424 114.309 59.258C115.78 58.8639 116.941 58.4459 118.13 57.4707C118.683 57.0178 119.356 56.5647 119.578 55.8486C119.806 55.1162 119.638 54.182 119.604 53.4309C119.568 52.6459 119.446 51.8418 119.462 51.0564C119.478 50.2648 119.866 49.6436 120.101 48.9078C120.471 47.7471 120.892 45.6424 119.72 44.8607C119.637 46.1008 119.2 47.2137 118.79 48.377C118.396 49.4975 117.748 50.1828 116.779 50.8361C116.411 51.0846 116.012 51.4307 115.576 51.5436C115.113 51.6635 114.466 51.602 113.985 51.6072C112.903 51.6186 111.731 51.3352 110.898 50.6061C109.211 49.1297 108.843 46.4838 109.006 44.385C109.1 43.1779 109.299 41.9617 109.852 40.8727C110.042 40.4981 110.421 40.0984 110.21 39.66C109.989 39.2008 108.999 38.9229 108.586 38.7078ZM75.3097 64.4277C73.3204 64.1682 71.2487 63.9566 69.3167 63.3953C68.6136 63.191 67.7655 62.9324 67.7581 62.0893C67.7558 61.8305 67.9495 61.3631 67.838 61.1197C67.7237 60.8703 67.0114 60.8535 66.6817 60.7879C62.8495 60.0279 59.29 58.5424 55.8689 56.682C52.4089 54.8004 49.2128 52.5801 45.948 50.3873C42.7626 48.2481 40.1159 45.6354 37.4683 42.8879C37.1005 42.5063 36.7232 42.1344 36.3433 41.7647C36.0661 41.4947 35.6812 40.9451 35.3169 40.7986C34.662 40.5354 33.7464 41.5328 33.1675 41.8297C32.4142 42.216 31.5157 42.2744 31.0187 41.4604C30.6903 40.9227 30.9956 40.8244 31.0427 40.3184C31.0814 39.9024 30.7966 39.6666 30.5462 39.377C30.353 39.8328 30.0962 40.667 29.4388 40.5633C28.848 40.4703 28.7831 39.6559 28.7411 39.1916C28.6919 38.6502 28.8607 37.9625 28.4943 37.5244C28.2062 37.1797 27.6431 36.9277 27.2741 37.24C26.5319 37.8682 27.0134 39.7391 25.9659 40.2055C24.4892 40.8627 24.6331 37.8631 24.6019 37.2635C21.2956 37.6291 18.1882 39.0732 14.8784 39.5459C13.5314 39.7383 11.9755 39.6752 10.7999 38.9063C9.7189 38.1994 8.59626 36.644 8.13413 35.4504C7.02538 36.2723 5.86619 36.9024 4.44249 36.5357C2.99525 36.1629 1.72208 35.36 1.19031 33.9053C0.656419 32.4453 0.810813 31.3334 2.14359 30.5094C2.6889 30.1721 3.12009 30.0068 3.72027 29.844C4.38482 29.6637 5.22661 29.5332 5.85406 29.2477C5.2071 28.3023 4.47116 27.3764 4.17714 26.2469C3.84548 24.9731 4.01095 23.5399 4.52532 22.3354C5.45505 20.1584 8.06855 18.702 10.4227 19.1994C12.4771 19.6336 13.931 21.4121 14.5144 23.3574C14.7796 24.2418 14.5468 24.7887 15.6286 24.3104C16.8571 23.7668 17.9321 22.9672 19.2011 22.4877C20.3021 22.0715 21.5025 21.7219 22.5224 21.1244C23.0503 20.8152 23.0255 20.7887 22.8103 20.2213C22.5431 19.5166 22.3778 18.8606 22.4374 18.0947C22.6079 15.9022 24.4228 14.3479 26.3648 13.6264C28.5665 12.8086 31.2966 13.1316 32.9464 14.899C33.748 15.7578 34.295 16.8863 34.365 18.068C34.3962 18.5918 34.0839 19.3879 34.2581 19.8709C34.4097 20.291 35.1269 20.6133 35.4036 21.0149C35.8427 21.6525 36.046 22.4156 36.4818 23.0643C36.8595 23.6258 37.2421 24.1828 37.605 24.7545C38.4868 26.1422 39.3132 27.5641 40.0339 29.0426C40.3636 29.719 40.6732 30.4051 40.9751 31.0943C41.1827 31.567 41.3538 32.4305 41.7269 32.807C42.1038 33.1877 42.6657 33.0658 42.9892 33.5477C43.3968 34.1543 43.0097 34.6906 42.6866 35.2191C45.1429 35.9387 46.6511 38.0184 48.6167 39.5426C50.6009 41.0809 52.7788 42.4131 54.9118 43.7322C57.1321 45.1053 59.312 46.4141 61.7294 47.4119C63.9818 48.3418 66.1591 49.4377 68.4054 50.3793C68.72 50.5113 68.9653 50.6863 69.2769 50.4814C69.565 50.2916 69.6228 49.6799 69.9237 49.432C70.6864 48.8039 72.4806 49.1523 73.3882 49.1381C74.6974 49.1178 76.0255 49.0438 77.3337 49.1113C77.7765 49.1342 78.2044 49.3107 78.6382 49.2522C79.3032 49.1627 79.9241 49.027 80.6161 48.9988C81.1921 48.9754 81.7671 48.9328 82.3441 48.9535C82.6177 48.9633 83.0802 49.0807 83.3255 48.8945C83.6316 48.6627 83.4472 48.1061 83.6562 47.7686C83.7917 47.5498 84.0597 47.49 84.1909 47.3176C84.1741 47.3395 84.3999 46.9502 84.3372 46.9996C84.7405 46.6814 85.8685 46.5852 86.345 46.6986C86.4825 46.7313 86.505 46.9629 86.6782 46.9635C86.8507 46.9641 86.864 46.7897 86.9859 46.7481C87.1124 46.7045 87.1464 46.5293 87.3155 46.5027C87.5026 46.4732 87.7421 46.6836 87.9446 46.6953C88.1728 46.7084 88.3905 46.5572 88.6027 46.4982C88.8849 46.4201 89.1025 46.4773 89.3374 46.4496C89.7659 46.3988 90.2267 46.3506 90.6718 46.2984C91.3193 46.2227 91.9499 46.0205 92.5816 45.867C92.8583 45.7994 93.1351 45.7209 93.4206 45.6994C93.7503 45.6742 94.1794 45.8295 94.4905 45.7561C94.7567 45.6934 94.54 45.5983 94.7706 45.5184C95.02 45.4318 95.2896 45.4082 95.5425 45.3207C96.1234 45.1195 96.6593 44.7855 97.1812 44.467C98.3968 43.725 99.4843 42.8004 100.686 42.0385C100.412 41.6393 99.3903 41.5717 98.9583 41.4305C98.3636 41.2361 97.78 41.0084 97.1983 40.7789C95.8759 40.2568 94.5632 39.7094 93.2509 39.1627C90.7616 38.1256 88.2581 37.125 85.879 35.8525C83.6441 34.6574 81.2571 33.726 79.0411 32.4881C77.9138 31.8582 76.7851 31.1953 75.6892 30.5123C74.6681 29.876 73.5694 29.4422 72.5116 28.8604C70.4454 27.7236 68.5476 26.3094 66.4734 25.1969C65.9835 24.9342 65.4396 24.3779 64.911 24.235C64.4566 24.1121 63.9956 24.3656 63.5851 24.5434C63.1501 24.7316 62.7419 25.0408 62.2536 25.0514C61.7161 25.0631 61.1009 24.7734 60.5937 24.5979C59.6511 24.2719 58.8323 23.3682 58.4896 22.427C58.3222 21.9668 58.2446 21.4557 58.1827 20.9715C58.1095 20.3977 58.3032 19.7231 58.1634 19.1773C57.8976 18.1395 56.6694 17.1649 55.9827 16.4203C55.13 15.4959 54.3909 14.4613 53.7177 13.401C52.213 11.0301 51.1689 8.21803 52.0077 5.42757C52.1357 5.00225 52.3636 4.29948 52.74 4.01641C53.2624 3.62313 53.486 4.08208 53.938 4.31005C54.4993 4.59331 55.0319 4.75825 55.5581 5.14309C56.196 5.60942 56.7208 6.17821 57.3087 6.69983C57.3118 5.49534 57.1243 4.43944 57.3843 3.23319C57.5177 2.61405 57.8163 1.32612 58.604 1.21575C59.421 1.10114 60.0069 2.58202 60.3624 3.12229C61.0235 4.12626 61.7624 5.06827 62.498 6.01766C62.5935 4.54471 62.398 1.04305 64.2497 0.46368C65.9089 -0.0556366 66.7667 4.41602 67.1687 5.41665C67.5435 6.35022 68.0698 7.27251 68.6394 8.10184C69.236 8.97079 69.8864 8.52803 70.8112 8.56887C71.6659 8.60673 72.0503 9.19805 72.0409 10.0364C72.0288 11.097 71.186 11.8718 70.603 12.6721C71.865 13.2822 73.4991 14.0758 74.253 15.3322C74.4202 15.6106 74.5353 15.9301 74.5456 16.2586C74.5556 16.5834 74.2585 17.1781 74.4128 17.4783C74.5255 17.6979 74.906 17.7773 75.1085 17.8969C75.5276 18.1441 75.8997 18.4641 76.3138 18.7203C79.028 20.4006 81.5798 22.4082 84.198 24.182C86.5622 25.7838 89.0665 27.2106 91.4577 28.8113C94.4986 30.8467 97.6956 32.5785 100.951 34.2518C101.701 34.6379 102.397 35.0666 103.118 35.4986C103.857 35.942 104.74 36.2414 105.529 36.6004C106.082 36.8518 106.685 37.3303 107.266 37.4869C107.956 37.6734 108.247 36.9406 109.052 37.1307C109.746 37.2945 110.503 37.367 110.92 37.992C111.286 38.54 111.252 39.3783 111.84 39.7326C112.523 40.143 112.714 39.7029 112.872 39.1328C113.052 38.484 113.559 37.7422 112.936 37.2752C112.349 36.834 111.516 36.7854 110.828 36.6223C110.48 36.5397 110.018 36.2381 109.686 36.2107C109.272 36.1766 109.175 36.5629 108.822 36.5635C108.635 36.5637 108.47 36.3824 108.292 36.3248C108.251 36.3119 108.146 36.4596 108.097 36.4459C107.923 36.3971 107.909 36.3389 107.738 36.269C107.132 36.0197 106.33 35.627 106.513 34.8699C106.611 34.4637 107.276 33.8104 106.812 33.4379C106.376 33.0877 105.79 33.818 105.549 33.0871C105.378 32.568 105.795 32.4287 105.265 32.0014C104.876 31.6871 104.517 31.6018 104.733 31.0256C104.871 30.6545 105.592 30.0902 105.386 29.6428C105.093 29.0096 103.979 29.6498 104.086 28.5057C104.163 27.6863 105.193 27.0947 105.2 26.2885C105.205 25.7113 104.658 25.7154 104.516 25.3404C104.375 24.9699 104.503 24.9713 104.709 24.7111C104.861 24.5178 104.96 24.4535 105.074 24.2258C105.212 23.9488 105.451 23.5902 105.361 23.2682C105.281 22.9785 104.942 22.8065 104.856 22.4856C104.535 21.2772 107.088 18.5315 107.738 20.1953C108.221 19.6367 108.854 18.4672 109.707 18.5609C110.223 18.6176 110.002 18.7649 110.182 19.0629C110.312 19.2791 110.672 19.3891 110.774 19.6231C110.977 18.9949 110.762 17.8309 111.324 17.3699C111.872 16.9207 112.217 17.7111 112.45 18.151C112.6 17.7359 112.696 16.9572 113.213 16.8084C113.767 16.6494 114.112 17.3418 114.381 17.6943C114.672 17.2818 115.216 16.0656 115.843 16.2139C116.314 16.325 116.546 17.1104 116.766 17.4729C117.281 17.1348 118.092 16.3207 118.758 16.4068C119.407 16.4904 119.35 17.0988 120.109 16.85C120.659 16.6693 121.231 16.1897 121.816 16.1537C122.431 16.1158 122.757 16.5475 123.441 16.4428C124.167 16.3316 124.278 16.1627 124.751 16.7555C124.985 17.0481 124.923 17.1764 125.328 17.2375C125.671 17.2895 125.971 17.0629 126.331 17.2057C126.597 17.3111 126.782 17.5574 126.894 17.8106C127.025 18.1096 126.873 18.6275 127.004 18.8629C127.257 19.3152 128.211 18.916 128.64 19.2303C129.218 19.6543 128.673 20.2981 128.981 20.768C129.228 21.1451 129.924 21.049 130.201 21.5582C130.453 22.0193 130.394 22.6287 130.102 23.0561C129.98 23.2356 129.636 23.3844 129.555 23.5469C129.389 23.882 129.529 23.843 129.625 24.1856C129.81 24.8406 129.662 25.0879 129.157 25.5361C128.865 25.7953 128.804 25.7209 128.785 26.1149C128.77 26.419 129.028 26.7008 128.98 27.041C128.902 27.5938 128.359 27.9412 128.195 28.4846C127.984 29.184 127.408 29.5668 126.974 30.1424C127.487 30.4522 128.162 30.7088 128.411 31.29C128.683 31.9242 128.632 32.8268 128.44 33.4699C128.255 34.0865 127.859 34.4799 127.478 34.9691C127.015 35.5648 127.055 36.0373 127.026 36.7643C126.966 38.3014 126.306 39.6971 124.799 40.1854C124.2 40.3789 123.66 40.6639 123.054 40.8443C122.312 41.0654 121.769 41.0834 120.999 41.0397C120.518 41.0125 119.954 40.9086 119.787 41.4186C119.703 41.6734 119.734 42.6656 119.848 42.892C120.044 43.2797 120.598 43.2281 120.932 43.5635C121.534 44.168 121.364 44.6832 122.38 44.6973C125.672 44.7432 128.954 44.4891 132.246 44.7273C133.869 44.8449 135.458 45.1256 137.088 45.2082C138.882 45.2988 140.681 45.3291 142.473 45.4381C144.165 45.5408 145.821 45.7625 147.522 45.6748C149.111 45.593 150.636 45.484 152.219 45.3086C152.76 45.2484 153.598 45.3348 153.981 44.9209C154.193 44.6914 154.242 44.298 154.453 44.0453C154.649 43.8121 154.914 43.6434 155.153 43.4613C155.735 43.0199 156.283 42.6231 157.05 42.6375C157.722 42.6504 158.258 43.1359 158.806 43.493C159.442 43.9076 159.705 44.0981 160.459 43.9373C161.211 43.7774 161.9 43.4805 162.633 43.2621C164.18 42.8018 165.629 42.1397 167.038 41.3543C167.732 40.9674 168.22 40.7072 169.02 40.9402C169.839 41.1789 170.072 41.4139 170.082 42.2647C170.085 42.5348 169.982 43.0149 170.292 43.1709C170.518 43.284 171.014 42.9682 171.205 42.8852C172.05 42.5184 172.88 42.1363 173.764 41.8686C174.57 41.624 175.386 41.4072 176.196 41.1738C176.873 40.9783 177.776 40.6955 178.451 41.0592C180.156 41.9777 177.648 44.3119 176.996 45.0885C177.809 44.8938 179.552 45.0049 179.979 45.8768C180.485 46.9088 179.471 47.932 178.899 48.6822C179.701 49.0471 181.318 48.7332 181.544 49.8822C181.734 50.8469 180.731 51.8184 180.077 52.3826C178.384 53.8432 175.759 54.8656 173.523 54.885C172.956 54.8898 172.403 54.7793 171.839 54.7523C171.426 54.7328 171.054 54.8756 170.653 54.8762C170.087 54.8768 169.586 54.7656 169.003 54.8455C168.331 54.9373 167.664 55.0502 166.989 55.1262C166.363 55.1967 165.736 55.2609 165.107 55.3098C164.693 55.3424 164.068 55.251 163.684 55.39C163.186 55.5699 163.331 55.7498 163.291 56.2287C163.241 56.817 162.943 57.3486 162.509 57.7408C160.935 59.1658 158.254 58.8236 157.463 56.732C157.27 56.2234 157.526 55.9576 157.453 55.499C157.38 55.0375 156.951 55.0531 156.531 55.0221C155.251 54.9273 153.956 54.9186 152.671 54.8299C150.184 54.6586 147.622 54.3098 145.137 54.3691C142.542 54.4309 139.932 54.2748 137.34 54.134C136.131 54.0682 134.878 53.6441 133.688 53.7357C132.424 53.8326 131.081 53.5604 129.81 53.4283C126.969 53.133 123.798 53.0473 121.173 51.867C121.381 54.7129 121.726 57.6021 119.416 59.7246C118.449 60.6141 117.233 61.6328 115.964 62.0119C114.328 62.5008 112.761 62.9059 111.097 63.2686C108.002 63.943 104.927 65.557 102.135 67.0068C100.822 67.6889 99.281 67.9547 97.8571 68.3369C97.1792 68.5191 96.4151 68.7592 95.704 68.7338C95.0032 68.7088 94.5169 68.2326 93.8984 67.9482C93.3066 69.3426 92.5075 70.6191 91.9118 71.9951C91.6165 72.6779 91.3837 73.4037 91.0396 74.0641C90.7771 74.5674 90.3525 74.8379 90.3124 75.4215C90.2148 76.8383 90.4739 78.3162 90.4044 79.749C90.3286 81.3117 90.0859 82.8977 89.9427 84.4623C89.6331 87.8434 89.7776 91.2477 89.5265 94.6332C89.297 97.7262 89.4403 100.795 89.0972 103.891C89.0021 104.75 88.8964 105.609 88.8276 106.471C88.7825 107.036 88.4694 108.339 88.7644 108.846C88.8933 109.067 89.203 109.091 89.4103 109.202C89.7335 109.376 90.0275 109.641 90.2691 109.917C90.779 110.499 90.9009 111.193 91.0171 111.936C91.6773 111.581 94.4446 109.758 94.0302 111.754C93.9019 112.373 93.3403 112.707 92.8974 113.102C92.5726 113.391 92.2628 113.698 91.9173 113.963C91.6843 114.142 91.1905 114.364 91.078 114.656C90.8773 115.179 91.9147 115.924 92.4042 115.918C93.0921 115.911 93.9505 114.879 94.5333 114.55C96.08 113.676 95.9403 115.563 95.3571 116.382C94.9171 117.001 95.2892 116.954 95.8945 117.079C96.8403 117.276 97.714 117.443 98.6755 117.563C100.513 117.792 102.321 117.496 104.145 117.921C105.961 118.343 107.04 119.476 107.305 121.344C107.444 122.331 107.576 121.836 108.404 122.067C109.17 122.281 109.602 123.156 110.042 123.75C110.922 124.934 112.566 127.916 111.219 129.312C110.647 129.905 109.258 129.754 108.506 129.856C108.021 129.921 107.438 130.146 106.95 130.029C106.485 129.918 106.176 129.503 105.841 129.198C105.836 131.072 105.825 132.7 104.34 134.053C103.142 135.145 101.54 135.646 99.9335 135.535C98.3591 135.427 96.7423 134.786 95.7446 133.521C95.2181 132.853 94.8433 132.034 94.7075 131.192C94.6448 130.805 94.6269 130.397 94.6874 130.008C94.7235 129.776 94.9437 129.356 94.804 129.133C94.5589 128.742 93.3585 129.067 92.9624 129.107C91.9165 129.213 90.8736 129.344 89.8316 129.484C88.9702 129.599 88.0915 129.722 87.2273 129.559C86.4845 129.418 86.2005 129.338 86.3343 130.217C86.6028 131.986 86.1554 133.554 84.7013 134.641C83.246 135.729 81.903 135.945 80.1235 135.658C78.4976 135.396 77.0103 133.861 76.5366 132.334C75.9062 130.301 76.5562 128.449 78.0745 127.061C77.1536 126.594 76.5429 126.319 76.2181 125.241C75.8784 124.115 76.1958 122.93 76.3564 121.801C76.7013 119.375 76.5669 117.015 76.6855 114.581C76.7374 113.508 76.9593 112.415 76.9628 111.344C76.9648 110.733 76.931 110.755 76.3025 110.75C75.9126 110.747 75.4993 110.774 75.3353 110.32C74.939 109.224 76.7982 109.317 77.2657 108.88C77.8233 108.36 77.4382 106.308 77.422 105.586C77.369 103.24 77.6009 100.949 77.6464 98.6098C77.6671 97.5529 77.7314 96.4418 77.6441 95.3887C77.6091 94.9684 77.3687 94.6287 77.3847 94.2104C77.405 93.6748 77.5083 93.1742 77.4806 92.6168C77.2382 87.7145 77.1849 82.7215 77.814 77.8514C77.8515 77.5598 78.0575 76.9033 77.9474 76.6104C77.7804 76.1668 77.2501 76.324 76.8796 76.1615C75.8431 75.7072 75.5868 74.9859 75.5304 73.9299C75.4968 73.3041 75.4636 72.6781 75.4312 72.0522C75.4144 71.7307 75.398 71.409 75.3806 71.0873C75.3603 70.7147 75.5136 70.2955 75.5048 69.9824C75.5019 69.882 75.4585 69.7318 75.4577 69.6725C75.3376 69.6135 75.2909 69.527 75.3171 69.4125C75.3116 69.3049 75.329 69.2 75.3687 69.0981C75.3749 69.159 75.2966 68.7529 75.2898 68.7887C75.3007 68.7332 75.5038 68.4037 75.4835 68.3639C75.3886 68.1773 75.1874 68.4039 75.1202 68.0564C75.0642 67.7646 75.254 67.4217 75.1903 67.0801C75.02 66.1684 75.1808 65.3504 75.3097 64.4277Z" fill="#252525"/>
<path fillRule="evenodd" clipRule="evenodd" d="M24.8601 78.7422C36.3755 78.7688 47.9179 79.0527 59.4042 79.3928C60.67 79.4303 61.94 79.5373 63.2064 79.5916C63.4267 79.6008 64.1513 79.5088 64.3146 79.7447C64.5802 80.1297 63.972 80.5211 63.6855 80.6967C62.6995 81.3002 61.3945 81.1947 60.2771 81.2328C58.7355 81.2852 57.1931 81.291 55.6507 81.2695C50.2919 81.1951 44.9306 80.7879 39.5831 80.4711C36.2892 80.276 32.9849 80.1564 29.6862 80.0594C28.0581 80.0115 26.4286 79.985 24.8005 79.9313C24.3609 79.9168 23.5601 80.0539 23.5599 79.4762C23.5597 78.874 24.4384 78.7748 24.8601 78.7422Z" fill="#252525"/>
<path fillRule="evenodd" clipRule="evenodd" d="M38.6318 85.2193C46.7802 85.5705 54.9343 85.8111 63.0835 86.1363C63.6118 86.1576 64.7364 86.0018 64.9347 86.65C65.1411 87.3238 64.282 88 63.7134 88.1748C62.9751 88.4018 62.0351 88.2746 61.2646 88.2963C60.2277 88.3256 59.2423 88.3164 58.2089 88.2465C54.2712 87.9799 50.34 87.6338 46.4013 87.3664C44.1716 87.2152 41.9435 87.0361 39.7171 86.8439C39.1234 86.7928 37.3601 86.9518 36.9443 86.468C36.688 86.1699 36.9595 85.7092 37.2126 85.4793C37.6296 85.101 38.1089 85.1867 38.6318 85.2193Z" fill="#252525"/>
<path fillRule="evenodd" clipRule="evenodd" d="M62.6747 94.1276C60.0267 94.2699 57.3491 94.0602 54.7462 93.6231C54.3915 93.5633 53.5718 93.5567 53.3452 93.2272C52.9989 92.7242 53.6495 92.2856 54.087 92.241C55.2995 92.118 56.7411 92.541 57.9646 92.6157C59.2442 92.6936 60.5415 92.5573 61.8243 92.5471C62.5577 92.5412 63.2909 92.5362 64.0245 92.5338C64.4546 92.5324 65.0731 92.4237 65.498 92.5213C66.6866 92.7944 65.1749 93.7951 64.6456 93.9106C64.4618 93.9506 62.6808 94.2147 62.6747 94.1276Z" fill="#252525"/>
<path fillRule="evenodd" clipRule="evenodd" d="M120.461 30.6018C120.478 30.291 120.398 29.5057 120.782 29.3584C121.532 29.0713 121.482 30.9121 121.775 31.1713C122.847 32.1215 122.558 28.4606 123.58 29.6412C124.411 30.6006 123.744 32.9123 122.575 33.3436C121.715 33.6612 121.129 33.05 120.795 32.3422C120.787 32.3258 120.322 30.5944 120.461 30.6018Z" fill="#252525"/>
<path fillRule="evenodd" clipRule="evenodd" d="M121.432 26.4102C121.95 26.3117 122.624 26.8494 122.306 27.3701C122.075 27.751 120.503 28.3414 120.078 28.3514C119.555 28.3637 119.6 27.9481 119.767 27.525C120.028 26.8627 120.724 26.4028 121.432 26.4102Z" fill="#252525"/>
<path fillRule="evenodd" clipRule="evenodd" d="M27.0755 18.0688C27.2347 17.4063 27.4693 16.6215 28.2534 17.26C28.78 17.6891 29.165 18.7471 29.2179 19.4088C29.2812 20.2012 28.8462 20.6041 28.1431 20.1596C27.4296 19.7086 27.1575 18.8772 27.0755 18.0688Z" fill="#252525"/>
<path fillRule="evenodd" clipRule="evenodd" d="M10.0833 26.399C9.82823 28.1705 8.25704 26.5219 8.32782 25.4412C8.36456 24.8789 8.68663 24.418 9.29835 24.7553C9.84596 25.0574 10.0366 25.852 10.0833 26.399Z" fill="#252525"/>
<path fillRule="evenodd" clipRule="evenodd" d="M99.5364 129.931C99.6532 129.492 99.6788 128.586 100.188 128.393C100.94 128.108 101.267 129.359 101.292 129.862C101.319 130.408 101.128 131.567 100.347 131.471C99.7066 131.392 99.6644 130.409 99.5364 129.931Z" fill="#252525"/>
<path fillRule="evenodd" clipRule="evenodd" d="M80.5911 130.633C80.7351 130.095 80.763 129.122 81.4099 128.959C82.122 128.78 82.3401 129.751 82.3487 130.3C82.3569 130.813 82.0698 132.141 81.3439 132.059C80.7851 131.996 80.7107 131.068 80.5911 130.633Z" fill="#252525"/>
</svg>
