<svg width="21" height="17" viewBox="0 0 21 17" fill="none" xmlns="http://www.w3.org/2000/svg">
<path d="M14.7993 0C13.2113 1.63942 12.7653 4.18119 12.7653 6.34615C12.7653 11.595 11.8429 14.5102 11.3226 15.7299C10.9848 16.5231 10.2009 16.9231 9.45084 16.9231H1.41302C1.02447 16.9231 0.662959 16.7181 0.473754 16.3876C0.284549 16.0571 0.284549 15.6505 0.487269 15.3233C0.818377 14.7383 1.00758 14.0607 1.17989 13.4162C1.5583 11.9916 1.95361 9.70102 1.95361 6.34615C1.95361 2.84255 3.40643 0 5.19712 0H14.7993ZM17.09 12.6923C15.2993 12.6923 13.8465 9.84976 13.8465 6.34615C13.8465 2.84255 15.2993 0 17.09 0C18.8807 0 20.3335 2.84255 20.3335 6.34615C20.3335 9.84976 18.8807 12.6923 17.09 12.6923ZM17.09 8.46154C17.688 8.46154 18.1712 7.51292 18.1712 6.34615C18.1712 5.17939 17.688 4.23077 17.09 4.23077C16.492 4.23077 16.0088 5.17939 16.0088 6.34615C16.0088 7.51292 16.492 8.46154 17.09 8.46154ZM4.65653 6.875C4.65653 6.58413 4.41327 6.34615 4.11595 6.34615C3.81862 6.34615 3.57536 6.58413 3.57536 6.875C3.57536 7.16587 3.81862 7.40385 4.11595 7.40385C4.41327 7.40385 4.65653 7.16587 4.65653 6.875ZM6.81887 6.875C6.81887 6.58413 6.57561 6.34615 6.27829 6.34615C5.98096 6.34615 5.7377 6.58413 5.7377 6.875C5.7377 7.16587 5.98096 7.40385 6.27829 7.40385C6.57561 7.40385 6.81887 7.16587 6.81887 6.875ZM8.44063 7.40385C8.73795 7.40385 8.98121 7.16587 8.98121 6.875C8.98121 6.58413 8.73795 6.34615 8.44063 6.34615C8.1433 6.34615 7.90004 6.58413 7.90004 6.875C7.90004 7.16587 8.1433 7.40385 8.44063 7.40385ZM11.1436 6.875C11.1436 6.58413 10.9003 6.34615 10.603 6.34615C10.3056 6.34615 10.0624 6.58413 10.0624 6.875C10.0624 7.16587 10.3056 7.40385 10.603 7.40385C10.9003 7.40385 11.1436 7.16587 11.1436 6.875Z" fill="#FF904C"/>
</svg>
