<svg width="8" height="8" viewBox="0 0 8 8" fill="none" xmlns="http://www.w3.org/2000/svg">
<path d="M1.31685 1.22246C1.17562 1.07725 0.982495 0.994098 0.779955 0.991285C0.577416 0.988472 0.382055 1.06623 0.236849 1.20746C0.0916427 1.34869 0.00848645 1.54181 0.00567341 1.74435C0.00286036 1.94689 0.0806209 2.14225 0.221849 2.28746L1.97685 4.00496L0.221849 5.72246C0.151552 5.79218 0.0957565 5.87513 0.05768 5.96653C0.0196035 6.05792 0 6.15595 0 6.25496C0 6.35397 0.0196035 6.452 0.05768 6.54339C0.0957565 6.63479 0.151552 6.71774 0.221849 6.78746C0.291571 6.85776 0.374522 6.91355 0.465916 6.95163C0.557311 6.9897 0.65534 7.00931 0.754349 7.00931C0.853358 7.00931 0.951387 6.9897 1.04278 6.95163C1.13418 6.91355 1.21713 6.85776 1.28685 6.78746L3.53685 4.53746C3.60715 4.46774 3.66294 4.38479 3.70102 4.29339C3.73909 4.202 3.7587 4.10397 3.7587 4.00496C3.7587 3.90595 3.73909 3.80792 3.70102 3.71653C3.66294 3.62513 3.60715 3.54218 3.53685 3.47246L1.31685 1.22246ZM7.69185 3.47246L5.44185 1.22246C5.30062 1.08123 5.10908 1.00189 4.90935 1.00189C4.70962 1.00189 4.51808 1.08123 4.37685 1.22246C4.23562 1.36369 4.15628 1.55523 4.15628 1.75496C4.15628 1.95469 4.23562 2.14623 4.37685 2.28746L6.10185 4.00496L4.37685 5.72246C4.30655 5.79218 4.25076 5.87513 4.21268 5.96653C4.1746 6.05792 4.155 6.15595 4.155 6.25496C4.155 6.35397 4.1746 6.452 4.21268 6.54339C4.25076 6.63479 4.30655 6.71774 4.37685 6.78746C4.44657 6.85776 4.52952 6.91355 4.62092 6.95163C4.71231 6.9897 4.81034 7.00931 4.90935 7.00931C5.00836 7.00931 5.10639 6.9897 5.19778 6.95163C5.28918 6.91355 5.37213 6.85776 5.44185 6.78746L7.69185 4.53746C7.76414 4.46974 7.82231 4.38837 7.86298 4.29804C7.90366 4.20772 7.92603 4.11023 7.92882 4.01121C7.93161 3.91219 7.91476 3.8136 7.87923 3.72113C7.84371 3.62866 7.79022 3.54414 7.72185 3.47246H7.69185Z" fill="black" fill-opacity="0.2"/>
</svg>
