<svg width="14" height="12" viewBox="0 0 14 12" fill="none" xmlns="http://www.w3.org/2000/svg">
<path d="M12.2843 6.57259L7.6607 11.1962C7.58906 11.2685 7.50383 11.3258 7.40993 11.3649C7.31602 11.404 7.2153 11.4242 7.11357 11.4242C7.01184 11.4242 6.91112 11.404 6.81721 11.3649C6.72331 11.3258 6.63808 11.2685 6.56644 11.1962L1.9428 6.57259C1.33846 5.95483 1.00005 5.12498 1.00005 4.26077C1.00005 3.39656 1.33846 2.56671 1.9428 1.94895C2.55863 1.34093 3.38921 1 4.25462 1C5.12003 1 5.9506 1.34093 6.56644 1.94895C6.63808 2.02118 6.72331 2.07851 6.81721 2.11763C6.91112 2.15675 7.01184 2.17689 7.11357 2.17689C7.2153 2.17689 7.31602 2.15675 7.40993 2.11763C7.50383 2.07851 7.58906 2.02118 7.6607 1.94895C8.29319 1.44566 9.0888 1.19277 9.8958 1.23852C10.7028 1.28427 11.4647 1.62546 12.0363 2.19701C12.6078 2.76856 12.949 3.53049 12.9948 4.33749C13.0405 5.14449 12.7876 5.9401 12.2843 6.57259Z" stroke="#252525"/>
</svg>
