<svg width="20" height="20" viewBox="0 0 20 20" fill="none" xmlns="http://www.w3.org/2000/svg">
<g clipPath="url(#clip0_97_798)">
<path d="M9.99984 18.3333C14.6022 18.3333 18.3332 14.6024 18.3332 10C18.3332 5.39763 14.6022 1.66667 9.99984 1.66667C5.39746 1.66667 1.6665 5.39763 1.6665 10C1.6665 14.6024 5.39746 18.3333 9.99984 18.3333Z" stroke="#FF904C" strokeWidth="1.5" strokeLinecap="round" strokeLinejoin="round"/>
<path d="M10 14.1667H10.0083" stroke="#FF904C" strokeWidth="1.5" strokeLinecap="round" strokeLinejoin="round"/>
<path d="M7.5752 7.5C7.77112 6.94306 8.15782 6.47342 8.66682 6.17428C9.17583 5.87513 9.77427 5.76578 10.3562 5.86559C10.9381 5.96541 11.4659 6.26794 11.8461 6.71961C12.2263 7.17128 12.4344 7.74294 12.4335 8.33334C12.4335 10 9.93353 10.8333 9.93353 10.8333" stroke="#FF904C" strokeWidth="1.5" strokeLinecap="round" strokeLinejoin="round"/>
</g>
<defs>
<clipPath id="clip0_97_798">
<rect width="20" height="20" fill="white"/>
</clipPath>
</defs>
</svg>
